<svg 
    xmlns="http://www.w3.org/2000/svg"
    viewBox="0 0 423.33334 66.14583"
>
    <pattern id="stars_header" x="0" y="0" width="33%" height="1">
        <image
            width="150"
            height="245"
            y="-90"
            href="https://img.freepik.com/free-vector/grunge-union-jack-flag-background_1048-12182.jpg"
        /> 
    </pattern>
    <path
    fill="url(#stars_header)"
    stroke="#fff"
    strokeWidth="1"
    d="M182.93292 2.26786c-.13229.1323-2.67229.29104-5.92666.3175l-5.66209.0794-.58208 1.5875c-.58208 1.53458-1.50813 4.04813-3.01625 8.0698-.39688 1.08478-1.05833 2.80458-1.42875 3.81-.97896 2.64583-.92604 2.64583-1.905 0-.37042-1.00542-1.03188-2.72522-1.42875-3.81-1.50813-4.02167-2.43417-6.53522-3.01625-8.0698l-.58208-1.5875-6.13834-.0794c-3.38666-.0265-6.13833.0265-6.13833.15875 0 .15875 2.77812 7.24958 3.81 9.7102.18521.42334.60854 1.45521.9525 2.24896.34396.79375.82021 1.95792 1.08479 2.56646.29104.635.50271 1.24354.50271 1.4023 0 .15874.13229.47624.26458.74083.15875.23812 1.45521 3.41312 2.91042 7.06437l2.64583 6.58813v27.14626h12.17084v-27.1198l4.1275-10.31876c2.27541-5.68854 4.25979-10.68916 4.445-11.1125.55562-1.27 1.50812-3.59833 2.06375-5.02708 1.03187-2.59292 1.40229-2.83104 1.61395-1.1377.0794.635.26459 1.82562.42334 2.64583.15875.84666.42333 2.19604.55562 2.9898.15875.79374.39688 2.14311.55563 2.96332.15875.84667.39687 2.06375.50271 2.72521.1852 1.11125.39687 2.11667 1.05833 5.68854.15875.71438.37042 1.98438.52917 2.77813.13229.79375.37041 2.16958.55562 3.0427.15875.87313.39688 2.11667.50271 2.77813.10583.66146.34396 1.87854.50271 2.69875.15875.84667.42333 2.2225.58208 3.04271.15875.84666.39688 2.06375.50271 2.72521.10583.66145.34396 1.905.50271 2.77812.18521.87313.42333 2.24896.55562 3.04271.15875.79375.37042 2.0373.52917 2.77812.66146 3.57188.87312 4.5773 1.05833 5.68855.58209 3.22791.79375 4.33916.92604 4.78895.15875.47625.4498.50271 6.69396.4498l6.53521-.0794.15875-1.05834c.15875-.97896.39688-2.48708 1.03188-6.2177.13229-.79376.37041-2.16959.52916-3.04272.55563-2.98979.79375-4.4979.9525-5.7679.3175-2.40772.79375-1.64043 1.42875 2.32832.15875 1.00542.39688 2.43417.52917 3.175.21167 1.2171.42333 2.30188 1.05833 6.08542.13229.71437.37042 2.06375.55563 2.96333l.3175 1.66688h13.07041l.18521-1.00542c.0794-.52917.26459-1.5875.39688-2.30187.52916-2.75167.87312-4.52438 1.08479-5.68855.10583-.66145.34396-1.87854.50271-2.7252.15875-.8202.42333-2.19605.58208-3.0427.15875-.82022.39688-2.0373.50271-2.69876.10583-.66146.34396-1.87854.50271-2.7252.15875-.82022.42333-2.19605.58208-3.04272.15875-.8202.39688-2.03729.50271-2.69875.10583-.66146.34396-1.905.50271-2.77812.18521-.87313.42333-2.24896.55562-3.0427.15875-.79376.37042-2.06376.52917-2.77814.66146-3.57187.87312-4.57729 1.05833-5.68854.10584-.66146.34396-1.87854.50271-2.7252.15875-.82022.42333-2.19605.58208-3.04272.15875-.8202.39688-2.03729.50271-2.69875.10584-.66145.34396-1.87854.50271-2.7252.76729-3.96875.87313-4.5773.89958-5.08.0529-.5027-.13229-.52917-5.87375-.60855-3.28083-.0265-6.0325.0265-6.16479.15875-.13229.1323-.34396.87313-.47625 1.66688-.15875.79375-.37041 1.95792-.52916 2.61937-.15875.66146-.39688 1.8521-.55563 2.64584-.15875.79375-.39687 1.95791-.52917 2.56646-.13229.635-.34395 1.64041-.47625 2.24895-.13229.635-.37041 1.8521-.55562 2.72521-.55563 2.77813-.79375 3.9423-1.05833 5.15938-.15875.66146-.39688 1.85208-.55563 2.64583-.15875.79375-.39687 1.95792-.52917 2.56646-.635 2.96333-.79375 3.73062-.92604 4.63021-.10583.55562-.26458 1.00541-.37041 1.00541-.1323 0-.34396-.87312-.52917-1.93145-.15875-1.03188-.39688-2.59292-.55563-3.43959-.13229-.8202-.34395-2.19604-.47625-3.0427-.15875-.8202-.39687-2.4077-.55562-3.4925-.15875-1.08479-.39688-2.64583-.52917-3.43958-.13229-.79375-.37041-2.4077-.52916-3.57188-.15875-1.16417-.39688-2.64583-.52917-3.30729-.13229-.66146-.37042-2.14313-.52917-3.30729-.15875-1.16417-.42333-2.80459-.58208-3.65125l-.29104-1.50813h-3.12209c-1.85208 0-3.175.10584-3.28083.2646-.15875.26457-.37042 1.42874-.92604 5.29165-.15875.9525-.37042 2.46063-.52917 3.36021-.13229.92604-.39687 2.40771-.52916 3.3073-.15875.92603-.37042 2.43416-.52917 3.38666-.13229.9525-.37042 2.48708-.52917 3.43958-.13229.9525-.39687 2.54-.55562 3.57188-.13229 1.00541-.37042 2.51354-.50271 3.3073-.13229.79374-.34396 2.14311-.42333 2.96332-.10584.84667-.26459 1.5346-.37042 1.5346-.26458 0-.79375-1.24356-.79375-1.8521 0-.47625-.13229-1.1377-.79375-3.96875-.13229-.5027-.37042-1.6404-.52917-2.51354-.50271-2.51354-.82021-4.1275-1.11125-5.42396-.50271-2.38125-.71437-3.33375-1.00541-4.89479-.15875-.87312-.39688-2.01083-.52917-2.51354-.13229-.5027-.37042-1.64042-.52917-2.51354-.3175-1.69334-.55562-2.83104-1.08479-5.23875l-.3175-1.50813h-6.00604c-3.54542 0-6.08542.10584-6.24417.2646zm134.56709 28.31041v28.575h24.60625l4.10104-4.10103 4.10104-4.10104V10.20536l-4.10104-4.10105-4.10104-4.10104h-24.60625zm20.6375 0v16.40418h-8.46667V14.1741h8.46667zm51.32916 0v28.575h28.575V46.98244h-16.40416V36.92827h16.40416V24.75744h-16.40416V14.17411h16.40416V2.00327h-28.575zm-363.5375-12.4354v11.37707H17.4625V7.03036H5.29167v56.88542H17.4625v-22.225h8.46667l.0529 11.16542.0794 11.19187H37.9677l.0794-28.65438.0529-28.62792H25.9292Zm22.56895-7.2496L44.45 14.96787v40.90458l4.10104 4.02166 4.1275 4.02168h16.35125l4.1275-4.02168 4.10105-4.02166V14.96786l-4.10105-4.10105-4.10104-4.10104-8.255.0265-8.28146.0265zm16.58937 24.4475v16.40417h-8.46666V18.93662h8.46666zm177.61481-24.4475-4.04813 4.0746v40.90457l4.10104 4.02168 4.1275 4.02166h16.35125l4.1275-4.02166 4.10105-4.02168V14.96786l-4.10105-4.10105-4.10104-4.10104-8.255.0265-8.28146.0265zm16.58937 24.4475v16.40417h-8.46666V18.93662h8.46666zm23.09813-24.4475-4.04813 4.0746v40.90457l4.10104 4.02168 4.1275 4.02166h16.35125l4.1275-4.02166 4.10105-4.02168V14.96786l-4.10105-4.10105-4.10104-4.10104-8.255.0265-8.28146.0265zm16.58937 24.4475v16.40417h-8.46666V18.93662h8.46666zm-215.37084 1.8521v28.83957h28.57501V53.86162H95.77916V8.35327H83.60833zm32.80834 0v28.83957h28.575V53.86162h-16.40416V8.35327h-12.17084zm240.24167 0v28.83957h28.575V53.86162h-16.40417V8.35327h-12.17083z"
    />
</svg>