<svg xmlns="http://www.w3.org/2000/svg" viewBox="0 0 400 210.117"><g fillRule="evenodd"><path d="M279.43 61.783c-.543.232-1.343 1.216-1.343 1.653 0 .491 4.417 11.448 4.782 11.862 1.093 1.239 3.423.247 3.412-1.453-.004-.681-4.231-11.328-4.672-11.769-.374-.374-1.602-.539-2.179-.293m-8.24 3.692c-1.185.997-1.195.954 1.963 8.781 1.427 3.537 1.528 4.066.668 3.522a991.992 991.992 0 0 0-4.772-2.915 660.383 660.383 0 0 1-5.255-3.221c-1.768-1.118-3.539-1.897-3.988-1.754-1.491.473-2.061 1.844-1.388 3.333.165.364.69 1.656 1.167 2.869.477 1.214 1.004 2.505 1.172 2.87.167.364.304.731.304.814 0 .084.232.684.514 1.335.283.65 1.091 2.648 1.797 4.44 1.407 3.571 1.723 3.982 3.071 3.989 2.581.014 2.578-1.345-.022-7.762-1.098-2.711-1.996-4.958-1.996-4.992 0-.327 3.413 1.628 11.665 6.68 2.78 1.701 4.934 1.275 4.679-.926-.136-1.176-6.236-16.451-6.823-17.087-.646-.699-1.91-.688-2.756.024m-23.916 9.46c-6.569 1.772-9.088 9.537-5.169 15.938 2.778 4.539 8.602 6.115 13.193 3.571 10.317-5.717 3.38-22.584-8.024-19.509m37.733 3.031c-1.719 1.719.327 4.549 2.484 3.435 2.044-1.056 1.353-4.049-.936-4.049-.751 0-1.053.119-1.548.614m-33.128.996c4.521 2.338 5.589 9.691 1.735 11.949-4.19 2.456-9.158-1.38-9.158-7.072 0-3.821 4.168-6.56 7.423-4.877m-24.238 3.735c-6.466 1.802-9.044 8.846-5.612 15.333 4.907 9.274 18.591 5.954 18.518-4.493-.05-7.335-6.386-12.657-12.906-10.84m3.533 3.704c2.063.442 4.059 2.774 4.865 5.681 2.062 7.443-7.023 10.541-10.289 3.509-2.457-5.289.472-10.252 5.424-9.19m-20.348 3.087c-6.099 1.137-8.374 9.182-3.321 11.742 1.05.532 1.13.54 4.919.47 4.383-.081 4.64.006 4.839 1.632.229 1.869-1.306 2.931-4.702 3.252-2.716.257-3.608.898-3.328 2.39.71 3.789 9.826 1.524 12.035-2.99 1.412-2.887.225-6.746-2.521-8.194-1.085-.572-1.109-.575-4.931-.526-4.27.054-4.673-.066-4.673-1.387 0-1.393 1.394-2.266 4.054-2.541 1.842-.19 2.382-.522 2.582-1.589.364-1.94-1.677-2.87-4.953-2.259M186.548 99.2c-6.559 1.683-9.402 8.408-6.29 14.879 5.097 10.597 20.636 5.993 18.385-5.447-.602-3.062-2.444-4.569-4.098-3.354-.121.089-1.294.58-2.605 1.091-3.07 1.197-3.725 2.219-2.416 3.775.671.797 1.468.793 3.579-.019 1.503-.578 1.565-.548 1.697.829.545 5.668-7.615 7.008-10.36 1.7-2.991-5.785-.35-10.127 5.941-9.765 2.734.158 3.102.081 3.523-.735 1.32-2.551-2.675-4.156-7.356-2.954m-15.278 6.291c-1.09.973-.819 1.984 3.007 11.235.632 1.527.48 1.526-2.023-.02a403.56 403.56 0 0 0-3.993-2.432c-.925-.553-2.58-1.572-3.679-2.264-3.607-2.272-4.496-2.513-5.659-1.534-.745.627-.879 1.761-.332 2.817.172.334.539 1.204.815 1.934.696 1.84 2.167 5.549 2.652 6.686.221.52.777 1.892 1.234 3.048 1.852 4.681 1.859 4.69 3.729 4.551 2.087-.154 2.003-1.621-.442-7.71-1.098-2.735-1.997-5.011-1.997-5.059 0-.245.582.027 2.406 1.124a878.57 878.57 0 0 0 6.58 3.933c1.358.806 2.79 1.681 3.182 1.944 2.054 1.385 4.227.815 4.227-1.107 0-.474-2.31-6.576-4.094-10.814-.267-.635-.555-1.392-.639-1.681-.084-.289-.222-.62-.307-.736-.085-.115-.421-.919-.748-1.786-1.021-2.714-2.416-3.472-3.919-2.129m-18.741 7.201c-1.474.857-1.389 1.177 3.437 13.004a297.107 297.107 0 0 1 1.492 3.743c1.022 2.635 2.553 3.383 3.987 1.949.842-.842.794-1.425-.352-4.252a147.421 147.421 0 0 1-1.352-3.437 74.342 74.342 0 0 0-1.051-2.627 74.585 74.585 0 0 1-1.052-2.627c-2.131-5.794-3.121-6.909-5.109-5.753m-9.608 4.348c-1.04 1.04-1.162 1.611-.863 4.029.338 2.735.908 9.918.796 10.03-.05.051-.762-.743-1.581-1.762a673.141 673.141 0 0 1-5.379-6.77c-1.396-1.795-3.267-2.171-4.72-.948-1.252 1.053-1.247 1.195.283 8.281l1.064 4.94c1.157 5.38 1.395 6.188 1.953 6.626.817.643 2.044.556 2.799-.199.881-.881.909-.624-.862-7.899-.969-3.981-1.274-5.411-1.2-5.633.036-.108.883.879 1.882 2.193 6.951 9.145 6.971 9.162 8.944 7.959 1.326-.808 1.316-.045.139-11.437-.272-2.627-.273-3.321-.005-3.048.081.081.573.932 3.698 6.393l1.774 3.098c1.26 2.197 3.246 2.457 4.23.554.468-.906.394-1.087-2.238-5.445-1.29-2.135-3.303-5.481-4.474-7.436-2.81-4.689-4.259-5.507-6.24-3.526m-25.964 9.826c-7.396 2.015-9.358 11.52-3.64 17.633 6.068 6.487 16.817 2.135 16.79-6.798-.023-7.338-6.474-12.653-13.15-10.835m3.955 3.743c5.475 1.648 6.679 10.587 1.706 12.665-5.958 2.489-11.451-7.864-6.269-11.817a5.097 5.097 0 0 1 4.563-.848m-20.015 2.772c-8.098 1.843-10.495 11.952-4.284 18.065 4.146 4.081 11.83 3.609 14.904-.915 1.793-2.638-.887-4.77-3.229-2.57-3.91 3.671-7.989 2.868-10.161-2-2.149-4.816.739-8.914 6.283-8.914 1.571 0 2.348-1.206 1.697-2.634-.532-1.169-2.712-1.601-5.21-1.032" fill="#fafafb"/><path d="M398.656.54c-.45.165-.923.382-1.051.483-.128.1-.753.349-1.388.553-.636.204-1.251.441-1.367.526-.115.085-.73.349-1.366.587-3.182 1.189-4.107 1.557-4.304 1.71-.118.092-.783.34-1.476.551-.694.211-1.313.458-1.376.549-.063.092-.716.358-1.452.593s-1.441.509-1.567.608c-.126.1-.75.349-1.386.555-.636.206-1.203.445-1.261.532-.058.087-.649.317-1.314.51-.664.193-1.208.418-1.208.499 0 .082-.591.324-1.314.537-.722.214-1.361.453-1.419.532-.097.132-1.246.581-4.519 1.765-.694.251-1.292.524-1.329.607-.037.083-.628.309-1.314.501-.685.192-1.246.42-1.246.506 0 .086-.614.332-1.366.548-.751.215-1.366.455-1.366.534 0 .078-.662.347-1.471.598-.81.25-1.472.519-1.472.598 0 .078-.615.319-1.366.534-.751.215-1.366.453-1.366.529 0 .075-.568.306-1.261.512-.694.206-1.262.442-1.262.526 0 .083-.449.279-.998.434-.549.156-1.188.398-1.419.539-.231.141-1.058.468-1.837.726-.779.258-1.46.54-1.513.626-.054.087-.717.334-1.474.551-.757.216-1.377.461-1.377.543 0 .081-.543.317-1.208.523-.665.206-1.256.437-1.314.514-.058.077-.625.308-1.261.514-.636.205-1.259.455-1.386.554-.126.1-.831.373-1.567.608s-1.389.501-1.452.59c-.063.09-.705.339-1.428.554-.723.215-1.314.458-1.314.54 0 .082-.567.309-1.261.503-.694.195-1.261.423-1.261.507 0 .085-.449.284-.998.443a18.97 18.97 0 0 0-2.05.76c-.578.26-1.453.591-1.944.736-.491.146-.893.333-.893.417 0 .084-.45.264-.999.401-.549.137-1.198.378-1.442.536-.244.158-.977.442-1.629.632-.652.189-1.185.411-1.185.494 0 .082-.45.279-.999.438-.549.159-1.471.501-2.049.761-.578.259-1.453.59-1.944.735-.492.146-.894.33-.894.408 0 .079-.615.319-1.366.534-.752.215-1.366.458-1.366.54 0 .082-.544.317-1.209.523-.665.206-1.256.437-1.314.514-.057.077-.767.357-1.576.622-.809.266-1.519.546-1.577.623-.057.076-.649.308-1.313.513-.665.206-1.209.438-1.209.515 0 .078-.615.317-1.366.532-.752.216-1.366.46-1.366.543 0 .083-.568.322-1.262.532-.693.21-1.261.441-1.261.513 0 .072-.449.261-.998.42a19.06 19.06 0 0 0-2.05.761c-.578.259-1.453.59-1.944.736-.491.145-.893.329-.893.407 0 .079-.615.319-1.366.534-.752.215-1.367.458-1.367.54 0 .082-.544.315-1.208.518-.665.203-1.314.449-1.442.546-.128.098-.78.365-1.449.595-.668.23-1.32.498-1.448.595-.128.098-.777.343-1.442.547-.664.203-1.208.434-1.208.513 0 .079-.591.319-1.314.532-.723.214-1.361.453-1.419.532-.097.132-1.246.581-4.519 1.765-.694.251-1.292.524-1.329.607-.037.083-.629.308-1.314.501-.685.192-1.246.42-1.246.506 0 .086-.614.332-1.366.547-.751.216-1.366.455-1.366.532 0 .078-.544.307-1.209.51s-1.35.479-1.524.614c-.173.134-.906.418-1.629.63-.722.211-1.313.452-1.313.534 0 .082-.568.308-1.262.503-.693.194-1.261.426-1.261.515 0 .089-.487.294-1.082.456-.596.162-1.187.393-1.314.513-.127.119-.94.442-1.806.717-.866.275-1.765.617-1.997.76-.232.144-.871.388-1.42.543-.549.156-.999.35-.999.432 0 .082-.544.308-1.208.501-.665.193-1.256.422-1.314.509-.058.087-.625.327-1.261.533-.636.205-1.26.455-1.386.554-.126.099-.831.373-1.567.608s-1.389.501-1.452.59c-.063.089-.706.339-1.428.554-.723.215-1.314.458-1.314.54 0 .082-.567.308-1.261.503s-1.261.421-1.261.503c0 .082-.617.326-1.371.542-.754.216-1.417.467-1.473.559-.057.091-.764.37-1.572.62-.808.251-1.47.53-1.47.622 0 .091-.3.226-.667.3-.367.073-1.147.359-1.734.636-.587.276-1.469.61-1.96.742-.491.131-.893.309-.893.395 0 .086-.45.286-.999.445-.549.159-1.471.501-2.049.76-.578.26-1.453.591-1.945.736-.491.146-.893.333-.893.416 0 .083-.615.327-1.366.542-.752.215-1.366.454-1.366.532 0 .077-.544.309-1.209.515-.665.206-1.256.437-1.314.514-.058.076-.767.357-1.576.622-.809.266-1.519.546-1.577.622-.057.077-.649.308-1.313.514-.665.206-1.209.438-1.209.515 0 .078-.615.317-1.366.532-.752.215-1.367.459-1.367.542 0 .083-.567.323-1.261.533-.693.21-1.261.441-1.261.513 0 .072-.449.26-.998.419-.549.158-1.424.494-1.945.748-.52.253-1.395.582-1.944.731-.549.149-.998.346-.998.437 0 .092-.308.231-.683.311-.376.079-1.141.37-1.699.647-.559.277-1.1.503-1.203.503-.102 0-.686.225-1.296.499-.61.275-1.488.617-1.951.76-.462.142-1.03.373-1.261.513-.231.139-.964.421-1.629.626-.665.206-1.208.441-1.208.523 0 .082-.615.324-1.367.539-.751.215-1.366.455-1.366.534 0 .079-.402.262-.893.408-.492.146-1.367.477-1.945.736-.578.259-1.5.601-2.049.76-.549.159-.998.359-.998.443 0 .084-.568.313-1.262.507-.693.195-1.261.424-1.261.51 0 .087-.615.333-1.366.548-.751.215-1.366.456-1.366.534 0 .079-.662.348-1.472.598-.809.251-1.471.52-1.471.599 0 .078-.615.318-1.366.534-.752.215-1.367.461-1.367.547 0 .086-.567.316-1.261.511-.693.194-1.261.426-1.261.515 0 .089-.487.294-1.082.456-.596.162-1.187.393-1.314.512-.127.12-.94.443-1.806.718-.866.275-1.765.617-1.997.76-.232.143-.871.388-1.42.543-.55.156-.999.348-.999.427 0 .08-.544.314-1.208.519-.665.206-1.256.438-1.314.514-.058.077-.625.31-1.261.518-.636.207-1.204.444-1.261.525-.058.082-.791.36-1.629.617-.839.258-1.524.545-1.524.638 0 .093-.355.235-.789.316-.433.08-1.214.357-1.734.615s-1.395.593-1.944.745c-.549.152-.998.342-.998.421 0 .08-.544.314-1.209.522-.665.207-1.303.453-1.419.546-.115.093-.825.38-1.576.638-.752.258-1.414.531-1.472.606-.058.075-.696.313-1.419.528-.722.215-1.313.458-1.313.54 0 .082-.568.308-1.261.503-.694.195-1.262.423-1.262.507 0 .085-.449.281-.998.436-.549.155-1.188.4-1.42.543-.233.143-1.107.481-1.945.751-.837.269-1.522.558-1.522.642 0 .084-.307.217-.683.296-.376.08-1.109.351-1.629.604s-1.372.594-1.892.757c-.52.164-.993.359-1.051.433-.058.075-.625.306-1.261.514-.636.208-1.345.492-1.576.632-.232.139-.965.417-1.63.617-.664.201-1.208.432-1.208.514 0 .082-.615.325-1.366.54-.752.215-1.367.455-1.367.534 0 .079-.567.315-1.261.525-.693.21-1.261.441-1.261.513 0 .072-.449.261-.998.42a18.97 18.97 0 0 0-2.05.76c-.578.259-1.453.591-1.944.736-.491.146-.893.329-.893.408 0 .079-.615.319-1.367.534-.751.215-1.366.458-1.366.54 0 .082-.544.317-1.209.523-.664.206-1.255.437-1.313.514-.058.076-.767.356-1.577.622-.809.266-1.518.546-1.576.622-.058.077-.649.308-1.314.514-.665.206-1.209.442-1.209.523 0 .082-.614.325-1.366.54-.751.215-1.366.455-1.366.534 0 .079-.568.315-1.261.525-.694.21-1.261.439-1.261.508 0 .07-.757.361-1.682.648-.925.287-1.682.589-1.682.67 0 .082-.567.308-1.261.503-.693.195-1.261.424-1.261.51 0 .086-.615.333-1.366.548-.752.215-1.366.455-1.366.532 0 .077-.544.307-1.209.509-.665.203-1.35.479-1.524.614-.173.135-.741.365-1.261.51-.52.146-1.146.392-1.389.547-.244.156-.977.438-1.629.628-.652.189-1.186.411-1.186.493 0 .082-.567.317-1.261.523-.694.206-1.261.444-1.261.529 0 .084-.45.273-.999.419a15.32 15.32 0 0 0-2.049.75c-.578.267-1.5.613-2.049.77-.55.157-.999.351-.999.43 0 .08-.544.313-1.209.519-.664.206-1.255.434-1.313.506-.058.072-.644.298-1.302.502-.658.203-1.225.434-1.261.512-.036.078-.774.39-1.641.694-2.468.865-4.062 1.487-4.519 1.764-.232.14-.87.374-1.419.52-.549.147-.999.334-.999.416 0 .082-.567.321-1.261.531-.693.21-1.261.454-1.261.542 0 .089-.307.226-.683.306-.376.08-1.156.362-1.734.625a23.98 23.98 0 0 1-2.207.848c-.636.203-1.204.44-1.261.527-.058.087-.649.316-1.314.51-.665.193-1.209.421-1.209.508 0 .086-.487.29-1.082.452-.596.162-1.187.394-1.314.516-.127.121-.964.448-1.86.726-.896.278-1.629.575-1.629.661 0 .087-.308.222-.683.301-.376.079-1.109.351-1.629.604s-1.372.593-1.892.757c-.52.163-.993.358-1.051.433-.058.074-.625.306-1.261.514-.636.208-1.345.492-1.577.631-.231.139-.964.418-1.629.618-.664.201-1.208.432-1.208.514 0 .082-.615.325-1.366.54-.752.215-1.367.455-1.367.534 0 .078-.567.315-1.261.525-.694.21-1.261.44-1.261.513 0 .072-.449.258-.999.415-.549.156-1.424.49-1.944.742-.52.253-1.395.583-1.944.735-.549.152-.999.344-.999.426 0 .082-.614.325-1.366.54-.751.215-1.366.461-1.366.546 0 .086-.568.325-1.261.531-.694.206-1.261.44-1.261.521 0 .08-.71.357-1.577.614-.867.258-1.576.537-1.576.62 0 .084-.568.311-1.261.506-.694.195-1.262.432-1.262.527 0 .095-.283.23-.63.299l-.631.126v25.229c0 13.876.079 25.228.175 25.228.336 0 3.084-.906 3.188-1.052.058-.08.768-.364 1.577-.63.809-.267 1.66-.6 1.892-.741.231-.141.869-.383 1.418-.539.549-.155.999-.341.999-.413 0-.072.567-.303 1.261-.513.694-.21 1.261-.446 1.261-.525 0-.079.615-.319 1.366-.534.752-.215 1.367-.458 1.367-.54 0-.082.543-.313 1.208-.514.665-.2 1.398-.478 1.629-.617.231-.14.941-.424 1.577-.632.636-.208 1.203-.441 1.261-.518.058-.077.649-.309 1.314-.514.664-.206 1.208-.439 1.208-.519 0-.079.591-.318 1.314-.532.722-.213 1.361-.457 1.419-.541.058-.084.767-.37 1.576-.637.809-.266 1.661-.599 1.892-.74.231-.141.87-.384 1.419-.539.549-.155.998-.351.998-.436 0-.084.568-.313 1.261-.507.694-.195 1.261-.424 1.261-.51 0-.086.615-.333 1.367-.548.751-.215 1.366-.456 1.366-.534 0-.079.662-.348 1.471-.598.81-.251 1.472-.52 1.472-.599 0-.078.615-.318 1.366-.534.751-.215 1.366-.461 1.366-.547 0-.086.568-.316 1.261-.511.694-.194 1.262-.425 1.262-.513 0-.088.454-.276 1.01-.418.555-.143 1.288-.406 1.629-.586.34-.18 1.177-.508 1.861-.729.683-.221 1.345-.483 1.471-.582.126-.099.75-.349 1.385-.555.636-.205 1.204-.445 1.262-.532.057-.087.649-.316 1.313-.51.665-.193 1.209-.418 1.209-.5 0-.082.449-.28.998-.439a19.647 19.647 0 0 0 2.05-.755 22.975 22.975 0 0 1 1.891-.735c.463-.147 1.03-.383 1.262-.525.231-.141.869-.384 1.418-.539.55-.156.999-.35.999-.432 0-.082.544-.307 1.209-.501.664-.193 1.255-.422 1.313-.509.058-.087.767-.375 1.577-.641.809-.265 1.518-.545 1.576-.622.058-.077.649-.308 1.314-.514.665-.206 1.208-.437 1.208-.515 0-.077.615-.317 1.367-.532.751-.215 1.366-.462 1.366-.548 0-.086.568-.315 1.261-.51.694-.194 1.261-.423 1.261-.507 0-.085.45-.284.999-.443a19.033 19.033 0 0 0 2.049-.76c.578-.259 1.453-.59 1.944-.736.492-.146.894-.337.894-.425 0-.088.307-.225.683-.304.376-.08 1.109-.351 1.629-.604a16.69 16.69 0 0 1 1.892-.757c.52-.164.993-.358 1.051-.433.057-.074.767-.352 1.576-.618.809-.265 1.519-.545 1.577-.622.057-.077.649-.308 1.313-.514.665-.206 1.209-.441 1.209-.523 0-.082.615-.325 1.366-.54.752-.215 1.366-.455 1.366-.534 0-.079.568-.315 1.262-.525.693-.21 1.261-.439 1.261-.508s.756-.361 1.681-.648c.925-.287 1.682-.588 1.682-.67 0-.082.567-.308 1.261-.503.694-.194 1.261-.421 1.261-.502 0-.082.615-.325 1.366-.54.752-.215 1.367-.458 1.367-.54 0-.081.544-.313 1.208-.513.665-.201 1.398-.479 1.629-.618.232-.139.941-.424 1.577-.632.636-.208 1.203-.441 1.261-.518.058-.077.649-.308 1.314-.514.664-.206 1.208-.439 1.208-.519 0-.079.591-.318 1.314-.532.723-.213 1.361-.457 1.419-.541.058-.084.767-.37 1.576-.636.81-.267 1.661-.6 1.892-.741.231-.141.87-.383 1.419-.539.549-.155.998-.349.998-.432 0-.082.544-.307 1.209-.5s1.256-.422 1.314-.51c.057-.087.625-.326 1.261-.532.636-.206 1.251-.449 1.368-.54.117-.092.874-.4 1.682-.685 2.624-.927 3.987-1.457 4.227-1.647.13-.102.744-.336 1.366-.52.622-.185 1.178-.406 1.236-.492.058-.086.625-.324 1.261-.53.636-.206 1.259-.455 1.386-.555.126-.099.831-.372 1.567-.607s1.389-.501 1.452-.59c.063-.09.705-.339 1.428-.554.723-.215 1.314-.458 1.314-.54 0-.082.567-.309 1.261-.503.693-.195 1.261-.423 1.261-.508 0-.084.449-.28.998-.436.55-.155 1.188-.398 1.419-.539.231-.141 1.083-.474 1.892-.739.809-.266 1.658-.612 1.886-.768.228-.157.54-.285.693-.285.154 0 .676-.197 1.162-.438a15.45 15.45 0 0 1 1.934-.759c.578-.176 1.099-.391 1.156-.477.058-.085.768-.373 1.577-.638.809-.266 1.518-.546 1.576-.623.058-.077.649-.308 1.314-.514.665-.206 1.209-.437 1.209-.515 0-.077.614-.316 1.366-.532.751-.215 1.366-.459 1.366-.542 0-.083.568-.322 1.261-.532.694-.21 1.261-.441 1.261-.513 0-.072.45-.262.999-.421a19.033 19.033 0 0 0 2.049-.76c.578-.259 1.453-.59 1.945-.736.491-.145.893-.329.893-.408 0-.078.615-.319 1.366-.534.752-.214 1.366-.457 1.366-.539 0-.082.544-.318 1.209-.523.665-.206 1.256-.437 1.314-.514.058-.077.767-.357 1.576-.623.809-.265 1.519-.545 1.577-.622.057-.077.649-.308 1.313-.514.665-.206 1.209-.441 1.209-.523 0-.082.615-.325 1.366-.54.752-.215 1.367-.455 1.367-.534 0-.078.567-.315 1.261-.525.693-.21 1.261-.44 1.261-.513 0-.072.449-.258.998-.414a14.653 14.653 0 0 0 1.945-.743c.52-.253 1.395-.583 1.944-.735.549-.152.998-.344.998-.426 0-.082.615-.325 1.367-.54.751-.215 1.366-.457 1.366-.539 0-.082.544-.318 1.208-.524.665-.205 1.256-.437 1.314-.513.058-.077.767-.357 1.577-.623.809-.265 1.518-.545 1.576-.622.058-.077.649-.308 1.314-.514.665-.206 1.208-.439 1.208-.518 0-.08.592-.319 1.314-.532.723-.214 1.361-.457 1.419-.541.058-.084.767-.371 1.576-.637.81-.266 1.661-.6 1.892-.741.231-.141.87-.383 1.419-.539.549-.155.998-.349.998-.431 0-.083.544-.308 1.209-.501s1.256-.418 1.314-.501c.058-.082.672-.324 1.366-.537.694-.213 1.308-.449 1.366-.524.058-.076.767-.382 1.577-.68 3.348-1.235 4.005-1.495 4.229-1.672.13-.102.745-.336 1.366-.52.622-.184 1.178-.405 1.236-.491.058-.086.625-.325 1.261-.531.636-.206 1.26-.455 1.386-.554.126-.1.831-.373 1.567-.608s1.389-.501 1.452-.59c.063-.09.706-.339 1.428-.554.723-.215 1.314-.458 1.314-.54 0-.082.567-.309 1.261-.503.694-.195 1.261-.423 1.261-.507 0-.084.568-.321 1.261-.527.694-.206 1.261-.445 1.261-.532 0-.087.453-.274 1.006-.416a13.032 13.032 0 0 0 2.05-.769c.574-.281 1.171-.514 1.328-.518.157-.003.724-.225 1.261-.493a13.41 13.41 0 0 1 1.975-.763c.549-.152.998-.341.998-.421 0-.079.544-.314 1.209-.521.665-.208 1.312-.461 1.438-.562.126-.102.832-.377 1.567-.612.736-.235 1.39-.501 1.452-.59.063-.09.706-.339 1.428-.554.723-.215 1.314-.456 1.314-.535 0-.079.568-.315 1.261-.525.694-.21 1.262-.439 1.262-.508 0-.07.756-.361 1.681-.648.925-.287 1.682-.579 1.682-.648 0-.07.567-.298 1.261-.508.693-.21 1.261-.447 1.261-.525 0-.079.615-.319 1.366-.534.752-.215 1.367-.458 1.367-.54 0-.082.543-.317 1.208-.523.665-.206 1.256-.437 1.314-.514.058-.077.767-.357 1.576-.622.81-.266 1.519-.546 1.577-.623.058-.077.649-.308 1.313-.514.665-.205 1.209-.441 1.209-.523 0-.082.615-.325 1.366-.54.752-.214 1.367-.455 1.367-.533 0-.079.567-.315 1.261-.525.693-.21 1.261-.441 1.261-.513 0-.072.449-.259.998-.415.55-.156 1.424-.491 1.945-.743.52-.252 1.395-.583 1.944-.735.549-.152.998-.344.998-.426 0-.082.615-.325 1.367-.539.751-.215 1.366-.458 1.366-.54 0-.082.544-.318 1.209-.523.664-.206 1.259-.448 1.321-.539.063-.09.772-.366 1.577-.614.805-.248 1.51-.517 1.568-.598.058-.081.649-.316 1.314-.522.665-.206 1.209-.441 1.209-.523 0-.082.614-.325 1.366-.54.751-.215 1.366-.455 1.366-.534 0-.078.591-.319 1.314-.534.722-.215 1.361-.452 1.419-.527.057-.075.767-.354 1.576-.62.809-.265 1.519-.545 1.576-.622.058-.077.649-.308 1.314-.514.665-.206 1.209-.439 1.209-.519 0-.08.449-.273.998-.431.549-.157 1.235-.413 1.524-.569.289-.156 1.188-.528 1.997-.827 3.27-1.208 3.793-1.415 4.019-1.593.13-.103.745-.337 1.366-.521.622-.184 1.178-.405 1.236-.491.058-.086.625-.325 1.261-.531.636-.205 1.26-.455 1.386-.554.126-.099.831-.373 1.567-.608s1.389-.501 1.452-.59c.063-.09.706-.339 1.428-.554.723-.215 1.314-.458 1.314-.54 0-.082.567-.308 1.261-.503s1.261-.423 1.261-.507c0-.084.568-.321 1.261-.527.694-.206 1.262-.445 1.262-.532 0-.087.452-.274 1.005-.416a12.995 12.995 0 0 0 2.05-.769c.574-.281 1.171-.514 1.328-.517.157-.004.724-.224 1.261-.489a16.219 16.219 0 0 1 1.923-.779c.52-.164.993-.359 1.051-.433.057-.075.625-.304 1.261-.51.636-.206 1.259-.455 1.385-.554.126-.1.832-.373 1.567-.608.736-.235 1.39-.501 1.453-.59.062-.09.705-.339 1.428-.554.722-.215 1.313-.458 1.313-.54 0-.082.568-.309 1.261-.503.694-.195 1.262-.427 1.262-.515 0-.089.487-.294 1.082-.457.596-.162 1.187-.394 1.314-.515.127-.122.964-.448 1.86-.726.896-.278 1.629-.568 1.629-.645 0-.077.615-.315 1.366-.53.752-.215 1.367-.458 1.367-.54 0-.082.543-.317 1.208-.523.665-.206 1.256-.437 1.314-.514.058-.077.767-.357 1.576-.622.81-.266 1.519-.546 1.577-.623.058-.076.649-.308 1.314-.513.664-.206 1.208-.442 1.208-.524 0-.082.615-.324 1.366-.539.752-.215 1.367-.455 1.367-.534 0-.079.567-.315 1.261-.525.694-.21 1.261-.441 1.261-.513 0-.072.449-.259.998-.415.55-.156 1.425-.49 1.945-.743.52-.252 1.395-.583 1.944-.735.549-.152.999-.341.999-.421 0-.079.54-.315 1.201-.523.661-.209 1.395-.498 1.629-.643.235-.145.877-.391 1.426-.546.549-.155.998-.347.998-.426 0-.079.686-.352 1.524-.606.838-.255 1.571-.53 1.629-.612.058-.082.673-.324 1.367-.536.693-.213 1.33-.491 1.415-.618.294-.438.193-50.574-.102-50.557-.144.008-.631.15-1.081.315M281.554 61.85c.497.429 1.363 2.305 2.936 6.358.27.694.797 2.018 1.172 2.943 1.035 2.549 1.058 3.437.108 4.271-1.711 1.503-3.019.79-4.172-2.274a358.11 358.11 0 0 0-2.013-5.086c-1.512-3.756-1.782-4.993-1.235-5.668.873-1.08 2.303-1.323 3.204-.544m-7.756 3.238c.474.31 1.49 2.193 1.879 3.481.08.264.269.764.421 1.11.152.347.936 2.286 1.741 4.309a527.57 527.57 0 0 0 1.688 4.204c1.708 4.029 1.854 5.051.859 6.004-1.276 1.223-1.582 1.11-8.983-3.324-3.618-2.167-6.612-3.941-6.653-3.941-.067 0 .877 2.404 1.362 3.468.105.232.392.941.638 1.577.247.636.732 1.865 1.08 2.732 1.252 3.127 1.239 3.814-.09 4.624-2.076 1.266-2.889.542-4.772-4.25a303.6 303.6 0 0 0-2.002-4.998c-1.242-2.913-2.89-7.249-2.991-7.869-.328-2.021 2.067-3.208 3.95-1.957.392.26 1.28.813 1.974 1.229.694.416 3.248 1.967 5.675 3.446 2.428 1.48 4.486 2.729 4.573 2.778.191.105-.344-1.332-2.339-6.286-1.812-4.501-1.89-5.385-.547-6.27.765-.504 1.827-.533 2.537-.067m-20.043 10.006c7.696 3.515 9.187 14.764 2.522 19.041-6.403 4.109-13.927.763-15.956-7.095-1.437-5.564 1.435-10.623 7.061-12.441 1.217-.394 5.085-.093 6.373.495m34.552 2.699c.518.43.763 1.601.501 2.393-.616 1.867-3.29 2.199-4.275.531-1.422-2.407 1.588-4.739 3.774-2.924m-40.366 1.243c-6.378 2.491-2.3 14.232 4.267 12.282 3.001-.892 4.366-4.103 3.193-7.512-1.407-4.089-4.362-5.979-7.46-4.77m-14.1 3.761c8.79 3.928 9.488 15.98 1.156 19.969-8.626 4.13-18.05-6.365-13.666-15.22 1.249-2.524 2.935-3.834 6.73-5.233.834-.308 4.741.019 5.78.484m-5.675 4.039c-6.431 2.59-1.95 14.643 4.529 12.181 3.248-1.234 4.294-4.225 2.787-7.969-1.502-3.73-4.387-5.392-7.316-4.212m-14.136 2.297c2.743.762 2.547 4.404-.237 4.404-2.528 0-4.439.94-4.439 2.185 0 1.47.637 1.636 4.961 1.288 5.912-.474 9.4 3.908 7.154 8.988-2.2 4.975-12.536 7.164-12.536 2.655 0-1.511.886-2.059 3.7-2.286 3.78-.304 5.744-2.355 3.962-4.137l-.537-.537-3.51.149c-5.044.214-6.568-.424-7.601-3.183-1.766-4.722 1.85-9.125 7.98-9.714.173-.017.67.068 1.103.188m-21.072 10.014c2.703 1.676 1.218 4.903-1.857 4.037-6.709-1.889-10.308 5.953-5.116 11.145 3.209 3.209 9.078.968 8.598-3.283-.139-1.24-.134-1.239-1.775-.612-2.499.955-4.053.378-4.053-1.504 0-1.342.508-1.762 3.62-2.995 4.265-1.689 4.955-1.538 6.062 1.331 1.863 4.831-.081 9.756-4.751 12.041l-1.673.819h-5.465l-1.472-.787c-7.108-3.8-8.535-14.079-2.566-18.477 2.889-2.128 8.34-3.023 10.448-1.715m-19.1 5.859c.382.198.76.639.945 1.104.169.425.395.963.502 1.194.107.231.374.894.595 1.472.642 1.685 3.372 8.53 3.815 9.563 1.674 3.914 1.79 4.684.859 5.725-1.355 1.515-1.047 1.651-13.76-6.075-2.249-1.366-2.15-1.451-1.146.981.453 1.098.88 2.139.948 2.312.068.174.352.883.632 1.577 2.071 5.146 2.088 5.734.187 6.658-2.071 1.006-2.268.735-5.696-7.814-4.019-10.025-3.943-9.795-3.536-10.652.921-1.941 2.247-1.865 5.749.331 1.098.688 3.463 2.129 5.255 3.202 1.791 1.073 3.66 2.219 4.151 2.548 1.053.704 1.163.455.471-1.069-.823-1.814-3.163-7.817-3.285-8.431-.426-2.131 1.428-3.601 3.314-2.626m-18.665 7.608c.425.377 1.091 1.742 1.922 3.939.751 1.983 3.451 8.75 3.816 9.563 1.543 3.432 1.654 4.448.597 5.472-1.278 1.239-3.039.84-3.742-.847l-.833-1.997c-.29-.694-1.061-2.633-1.713-4.309a217.436 217.436 0 0 0-1.591-3.994c-.858-2.008-2.309-5.861-2.308-6.129.004-1.649 2.612-2.798 3.852-1.698m-8.922 3.716c.645.334 1.4 1.244 2.103 2.535.251.462.724 1.266 1.049 1.787 6.766 10.804 7.417 12.209 6.233 13.444-.679.709-1.813.979-2.653.631-.625-.259-1.036-.844-3.02-4.301a702.65 702.65 0 0 0-2.561-4.414l-1.353-2.313.127 1.156c.07.636.213 1.819.318 2.628 1.242 9.578.881 11.379-2.199 10.966-1.069-.144-1.783-.957-7.554-8.599-.678-.897-1.253-1.631-1.278-1.631-.052 0 .609 2.881 1.567 6.831 1.329 5.477 1.332 5.861.062 6.646-2.024 1.251-3.252.293-3.991-3.111l-.997-4.586c-.277-1.272-.79-3.636-1.139-5.255-.35-1.618-.754-3.474-.898-4.123-.568-2.561 1.634-4.58 4.106-3.765.78.258 1.269.782 4.01 4.3 1.472 1.89 4.305 5.433 4.466 5.585.061.058.045-.462-.036-1.156-.479-4.089-.914-10.679-.745-11.27.557-1.942 2.641-2.886 4.383-1.985m-25.162 9.998c7.981 1.154 12.143 12.027 6.869 17.944-6.065 6.805-16.433 3.282-18.074-6.142-.99-5.68 2.77-10.962 8.389-11.786.661-.097 1.25-.186 1.308-.198.057-.011.736.07 1.508.182m-3.715 4.806c-2.596 1.24-3.428 3.56-2.523 7.035 1.98 7.6 11.865 6.54 10.628-1.14-.77-4.785-4.601-7.57-8.105-5.895m-11.971 2.222c2.17 1.422 1.24 3.643-1.636 3.91-4.72.438-6.955 3.09-5.932 7.041 1.499 5.791 5.821 7.416 9.983 3.754 1.939-1.707 3.434-1.777 4.155-.195.863 1.895-.602 3.907-4.087 5.611l-1.863.911h-2.627c-10.053 0-14.491-14.057-6.201-19.641 2.57-1.731 6.638-2.42 8.208-1.391" fill="#744c9c"/><path d="M220.347 92.065c0 .636.039.896.087.578a4.658 4.658 0 0 0 0-1.156c-.048-.318-.087-.058-.087.578m-15.775 4.309c.003.463.046.627.096.366.05-.262.048-.64-.004-.841-.053-.201-.094.013-.092.475M92.966 143.037c.002.578.042.79.091.47a3.762 3.762 0 0 0-.003-1.051c-.05-.258-.09.003-.088.581" fill="#bca4cc"/><path d="M279.929 61.525c.261.051.64.049.841-.004.201-.052-.013-.094-.476-.091-.462.002-.627.045-.365.095m-40.037 22.868c.002.578.042.79.091.47a3.762 3.762 0 0 0-.003-1.051c-.05-.258-.09.003-.088.581m-2.793.631c.392.404.761.735.818.735.058 0-.215-.331-.607-.735-.393-.405-.761-.736-.819-.736-.057 0 .216.331.608.736m18.765 1.366c0 .52.041.733.091.473.05-.26.05-.686 0-.946-.05-.26-.091-.047-.091.473m-1.54 3.731-.724.788.788-.724c.433-.399.788-.753.788-.789 0-.16-.178-.009-.852.725m-13.579 3.521c0 .924.037 1.277.082.782.044-.494.044-1.251-.002-1.681-.045-.431-.081-.026-.08.899m16.838-.684-.831.894.894-.831c.491-.457.893-.859.893-.893 0-.159-.183 0-.956.83m-43.237 4.096a12.1 12.1 0 0 0 1.786 0c.492-.045.09-.081-.893-.081s-1.385.036-.893.081m4.466.534c0 .041.308.298.684.573.422.31.569.361.385.134-.28-.345-1.069-.866-1.069-.707m4.826 2.937c.871.929 1.06 1.095 1.06.938 0-.034-.449-.483-.999-.999l-.998-.937.937.998m-29.418.697c0 .297-.1.746-.222.999-.214.443-.211.445.105.051.299-.373.469-1.589.222-1.589-.058 0-.105.243-.105.539m-12.727.565-.831.893.893-.831c.831-.773.99-.956.831-.956-.034 0-.436.402-.893.894m40.532 1.524c.002.578.043.789.091.47.048-.32.047-.793-.003-1.051-.05-.259-.089.003-.088.581m-37.453 1.478c-.358.409-.652.806-.652.883 0 .077.072.05.159-.06.088-.11.437-.507.775-.883.339-.375.561-.683.493-.683-.067 0-.416.335-.775.743m31.81.361-.617.683.683-.617c.375-.34.683-.647.683-.684 0-.162-.174-.019-.749.618m-43.97-.328c.202.053.533.053.736 0 .202-.053.036-.096-.368-.096-.405 0-.57.043-.368.096m6.318 3.954c.002.693.041.952.088.574a5.64 5.64 0 0 0-.003-1.261c-.048-.316-.086-.007-.085.687m30.252-.105c0 .404.043.57.096.367a1.719 1.719 0 0 0 0-.735c-.053-.203-.096-.037-.096.368m-20.227.782c0 .122.194.445.432.718l.433.496-.369-.63c-.486-.83-.496-.843-.496-.584m23.068 1.678c.261.05.686.05.946 0 .26-.05.048-.091-.473-.091-.52 0-.733.041-.473.091m-15.513 6.315-.724.788.788-.724c.434-.398.788-.753.788-.788 0-.161-.177-.01-.852.724m-63.73 3.354c.26.05.686.05.946 0 .26-.05.047-.091-.473-.091s-.733.041-.473.091m2.155.338c0 .036.307.343.683.683l.683.617-.617-.683c-.576-.637-.749-.78-.749-.617m46.3 1.405c0 .521.041.733.091.473.05-.26.05-.685 0-.946-.05-.26-.091-.047-.091.473m-38.676 4.204c0 .52.041.733.091.473.05-.26.05-.686 0-.946-.05-.26-.091-.047-.091.473m.202 1.892c0 .405.043.57.096.368a1.723 1.723 0 0 0 0-.736c-.053-.202-.096-.037-.096.368m-16.865-.355c0 .037.308.344.683.684l.684.617-.618-.683c-.575-.637-.749-.78-.749-.618m20.858.565c0 .405.044.57.096.368a1.723 1.723 0 0 0 0-.736c-.052-.202-.096-.036-.096.368m-32.141 6.937c0 .751.038 1.058.085.683a6.788 6.788 0 0 0 0-1.367c-.047-.375-.085-.068-.085.684m-4.621.42c0 .867.037 1.222.083.788a9.216 9.216 0 0 0 0-1.576c-.046-.434-.083-.079-.083.788m32.51.907c0 .036.307.343.683.683l.683.617-.617-.683c-.576-.637-.749-.78-.749-.617m-22.33 6.392c.378.047.946.046 1.261-.002.316-.048.007-.086-.686-.085-.694.001-.953.04-.575.087m-6.677 1.424c.392.405.76.736.818.736.058 0-.216-.331-.608-.736-.392-.405-.76-.736-.818-.736-.058 0 .216.331.608.736m-3.624 1.935c.262.051.64.049.841-.004.201-.052-.013-.094-.475-.091-.463.002-.627.045-.366.095m-1.746 1.165-.831.894.893-.831c.831-.773.99-.956.831-.956-.034 0-.436.402-.893.893m4.162.894c.002.462.045.627.095.365.051-.261.049-.64-.004-.841-.053-.201-.094.013-.091.476m-15.827 2.47c.871.928 1.06 1.094 1.06.937 0-.034-.449-.483-.998-.999l-.999-.937.937.999" fill="#ae91c4"/><path d="M258.795 70.363c-.325.318-.398.425-.161.238.237-.186.62-.443.851-.571.231-.128.304-.236.161-.239-.143-.004-.526.254-.851.572m-9.557 4.198c.376.047.991.047 1.366 0 .376-.047.069-.085-.683-.085-.751 0-1.059.038-.683.085m-6.265 2.738-.724.788.788-.724c.734-.674.885-.852.725-.852-.035 0-.39.354-.789.788m6.37 1.248c.202.053.534.053.736 0 .202-.052.037-.096-.368-.096-.405 0-.57.044-.368.096m-19.649 3.791c.378.047.945.046 1.261-.002.316-.048.007-.086-.687-.085-.694.001-.952.041-.574.087m14.825 1.53c0 .635.04.896.088.578a4.658 4.658 0 0 0 0-1.156c-.048-.318-.088-.058-.088.578m-4.412.525c.001.694.041.952.087.574a5.584 5.584 0 0 0-.002-1.261c-.048-.316-.086-.007-.085.687m38.351.254c.261.05.639.048.84-.004.201-.053-.013-.094-.475-.092-.463.003-.627.046-.365.096m-48.873 1.678c.202.052.533.052.736 0 .202-.053.036-.097-.368-.097-.405 0-.57.044-.368.097m38.882 1.326c0 .405.043.57.096.368a1.723 1.723 0 0 0 0-.736c-.053-.202-.096-.037-.096.368m-55.8 1.62c.261.05.639.048.84-.004.201-.053-.013-.094-.475-.092-.462.003-.627.046-.365.096m34.206.692c.452.463.869.841.926.841.058 0-.264-.378-.715-.841-.452-.462-.869-.841-.927-.841-.057 0 .265.379.716.841m-34.419 3.512c.26.05.686.05.946 0 .26-.05.047-.091-.473-.091s-.733.041-.473.091m23.862.692c0 .52.041.733.091.473.05-.26.05-.686 0-.946-.05-.26-.091-.047-.091.473m13.556 1.624c.378.047.946.046 1.262-.002.315-.048.006-.087-.687-.085-.694.001-.952.04-.575.087m-60.964 2.942a7.928 7.928 0 0 0 1.471.002c.436-.046.131-.084-.679-.085-.809-.001-1.166.036-.792.083m41.728.834c.202.053.533.053.736 0 .202-.053.036-.096-.368-.096-.405 0-.57.043-.368.096m-20.911 2.319c.378.047.946.046 1.261-.002.316-.048.007-.086-.686-.085-.694.001-.953.041-.575.087m-17.975 1.254c.202.053.533.053.736 0 .202-.053.036-.096-.368-.096-.405 0-.57.043-.368.096m38.145.427a7.769 7.769 0 0 0 1.472.002c.436-.045.131-.083-.679-.084-.809-.001-1.166.036-.793.082m-17.018 2.94c.261.05.64.048.841-.004.201-.053-.013-.094-.476-.092-.462.003-.627.046-.365.096m-33.929 2.269c0 .924.037 1.277.082.782.044-.494.043-1.251-.002-1.681-.045-.431-.081-.026-.08.899m40.797-.684-.617.684.683-.618c.637-.575.78-.749.617-.749-.036 0-.343.308-.683.683m-20.832 2.786c.001.809.039 1.114.084.678a7.846 7.846 0 0 0-.001-1.471c-.047-.373-.084-.017-.083.793m-45.419 1.511c.203.053.534.053.736 0 .202-.053.037-.096-.368-.096-.404 0-.57.043-.368.096m-9.038 3.783c.202.053.533.053.736 0 .202-.053.037-.096-.368-.096-.405 0-.57.043-.368.096m37.783 1.011c.392.405.76.736.818.736.058 0-.216-.331-.608-.736-.392-.404-.761-.735-.818-.735-.058 0 .215.331.608.735m6.248 2.99a7.856 7.856 0 0 0 1.472.001c.436-.045.13-.083-.679-.084-.809-.001-1.166.036-.793.083m-46.343 2.686c.003.462.046.626.096.365s.048-.64-.004-.841c-.053-.201-.094.013-.092.476m3.731 1.051c0 .289.036.525.081.525.044 0 .125-.236.181-.525.055-.289.019-.526-.081-.526s-.181.237-.181.526m-3.525.945c0 .405.044.571.097.368a1.751 1.751 0 0 0 0-.735c-.053-.203-.097-.037-.097.367m-23.327 1.625a9.216 9.216 0 0 0 1.576 0c.434-.045.079-.082-.788-.082s-1.222.037-.788.082m.21 3.985c.202.053.533.053.735 0 .203-.052.037-.096-.367-.096-.405 0-.571.044-.368.096m27.536 1.852c.002.463.045.627.095.366.051-.262.049-.64-.004-.841-.052-.201-.094.013-.091.475m-16.599 5.465c.002.578.043.79.091.47.048-.319.047-.792-.003-1.05-.05-.259-.089.002-.088.58m-26.699-.584c.32.048.793.047 1.051-.003.259-.05-.003-.09-.581-.088-.578.001-.789.042-.47.091m22.29 1.005c.002.693.041.952.088.574a5.64 5.64 0 0 0-.003-1.261c-.048-.316-.086-.007-.085.687m-12.361 6.621c.451.462.868.841.926.841.058 0-.264-.379-.716-.841-.451-.462-.868-.841-.926-.841-.058 0 .264.379.716.841m6.571 2.881c.261.05.64.049.841-.004.201-.053-.013-.094-.476-.092-.462.003-.627.046-.365.096m-17.235 6.73c.378.047.946.046 1.261-.002.316-.048.007-.086-.686-.085-.694.001-.953.04-.575.087" fill="#c4b4d4"/></g></svg>