<svg xmlns="http://www.w3.org/2000/svg" xml:space="preserve" viewBox="0 0 512 512">
  <path fill="#eebf00" d="m299.245 308.861 35.485-24.444L344.869 166.5c0-21.84-17.705-39.545-39.545-39.545h-11.263c-10.596 0-19.186-8.589-19.186-19.186V81.73h-37.752v26.038c0 10.596-8.589 19.186-19.186 19.186h-11.263c-21.84 0-39.545 17.705-39.545 39.545l10.139 117.917 30.692 24.025 91.285.42z"/>
  <path fill="#663c1d" d="M305.324 126.954h-11.263c-10.596 0-19.186-8.59-19.186-19.186V81.73h-16.334v26.038c0 10.596 8.59 19.186 19.186 19.186h11.263c21.841 0 39.545 17.705 39.545 39.545l-10.139 117.917-35.378 24.37 16.227.074 35.485-24.444 10.139-117.917c0-21.84-17.704-39.545-39.545-39.545z" opacity=".14"/>
  <path fill="#ddb200" d="M302.794 185.23v86.312l-17.016 178.897h-64.312l-17.017-178.897V185.23z"/>
  <path fill="#663c1d" d="M287.409 185.23v71.108l-17.016 178.898h-50.554l1.445 15.203h64.313l17.016-178.897V185.23z" opacity=".14"/>
  <path fill="#3e3b43" d="M184.097 477.417h139.051v26.979H184.097z"/>
  <path fill="#494949" d="M204.445 450.438h98.345v26.979h-98.345z"/>
  <path fill="#663c1d" d="M237.122 75.462h37.736v29.288h-37.736z" opacity=".27"/>
  <path fill="#eebf00" d="m279.845 86.402-9.893 7.057a24.024 24.024 0 0 1-27.903 0l-9.893-7.057a20.276 20.276 0 0 1-8.501-16.508V28.473c0-11.526 9.343-20.868 20.868-20.868h22.957c11.526 0 20.868 9.343 20.868 20.868v41.421a20.285 20.285 0 0 1-8.503 16.508z"/>
  <path fill="#663c1d" d="M275.97 9.422a20.771 20.771 0 0 1 1.818 8.492v41.421a20.277 20.277 0 0 1-8.501 16.508l-9.893 7.057a24.025 24.025 0 0 1-27.904 0l-5.776-4.12a20.256 20.256 0 0 0 6.442 7.622l9.893 7.057a24.024 24.024 0 0 0 27.903 0l9.893-7.057a20.275 20.275 0 0 0 8.501-16.508V28.473c0-8.498-5.087-15.797-12.376-19.051z" opacity=".1"/>
  <path fill="#cca400" d="m304.821 164.162-2.027 29.747h-35.801l-13.372-5.16-15.096 5.16h-34.076l-2.028-29.747z"/>
  <path d="M305.324 119.351h-11.262c-6.387 0-11.583-5.196-11.583-11.583V93.863l1.781-1.27a27.932 27.932 0 0 0 11.69-22.698V28.473C295.95 12.774 283.179 0 267.478 0h-22.957c-15.7 0-28.473 12.774-28.473 28.473v41.42a27.937 27.937 0 0 0 11.69 22.698l1.781 1.27v13.904c0 6.387-5.196 11.583-11.582 11.583h-11.261c-25.998 0-47.149 21.15-47.149 47.149 0 .218.009.435.027.652l10.139 117.917a7.608 7.608 0 0 0 2.677 5.164l28.505 24.016 12.23 128.587h-8.654a7.603 7.603 0 0 0-7.604 7.604v19.375h-12.75a7.603 7.603 0 0 0-7.604 7.604v26.979c0 4.2 3.404 7.604 7.604 7.604h139.052c4.2 0 7.604-3.404 7.604-7.604v-26.978c0-4.2-3.404-7.604-7.604-7.604h-12.75v-19.375c0-4.2-3.404-7.604-7.604-7.604h-8.654l12.196-128.224 32.886-24.058a7.604 7.604 0 0 0 3.086-5.485l10.139-117.917c.019-.217.027-.434.027-.652-.002-25.997-21.152-47.147-47.151-47.147zm-74.067-90.878c0-7.315 5.95-13.265 13.265-13.265h22.957c7.314 0 13.264 5.95 13.264 13.265v41.42c0 4.087-1.986 7.945-5.314 10.318l-9.893 7.057a16.423 16.423 0 0 1-19.073 0l-9.893-7.057a12.703 12.703 0 0 1-5.314-10.318l.001-41.42zm84.287 468.319H191.699v-11.77h123.845v11.77zm-20.354-26.978h-83.137v-11.771h9.382l.021.001.02-.001h64.29l.02.001.021-.001h9.382l.001 11.771zm-33.965-26.98V293.022c0-4.2-3.404-7.604-7.604-7.604a7.603 7.603 0 0 0-7.604 7.604v149.812h-17.638L212.053 271.18v-69.669h26.471c.836 0 1.668-.138 2.46-.409l12.481-4.265 10.792 4.164a7.6 7.6 0 0 0 2.737.51h28.198v69.669l-16.327 171.654h-17.64zm66.226-162.515-19.189 14.038 2.102-22.097c.022-.238.034-.48.034-.72v-77.376l2.009-29.485a7.603 7.603 0 0 0-7.07-8.103c-4.181-.289-7.818 2.879-8.103 7.07l-1.544 22.66h-27.28l-12.051-4.651a7.598 7.598 0 0 0-5.197-.101l-13.901 4.752h-25.708l-1.544-22.66c-.285-4.19-3.95-7.363-8.103-7.07a7.604 7.604 0 0 0-7.07 8.103l2.009 29.485v77.377c0 .24.012.482.034.72l1.937 20.367-14.242-12-9.84-114.44c.167-17.469 14.43-31.63 31.94-31.63h11.262c14.772 0 26.79-12.018 26.79-26.791v-4.332c3.627 1.384 7.447 2.093 11.272 2.093s7.645-.709 11.271-2.092v4.331c0 14.772 12.018 26.791 26.791 26.791h11.262c17.509 0 31.772 14.162 31.94 31.631l-9.811 114.13z"/>
</svg>
