<svg xmlns="http://www.w3.org/2000/svg" viewBox="0 0 400 343">
    <defs>
        <linearGradient id="gradient">
            <stop id="color1" offset="0%" stopColor="#FFC338" />
            <stop id="color2" offset="100%" stopColor="FFEA68" />
        </linearGradient>
    </defs>
    <g>
        <path className="spotlight_svg_light_path" fill="url(#gradient)" d="M302 93a18 18 0 0 0-9 3c-1 0-5 6-5 9l-1 2c0 3 3 15 6 18l2 2a54 54 0 0 0 25 18c3 1 12 2 15 0h2c12-4 13-23 1-35l-2-3-4-3-5-4-1-1-2-1h-1l-2-1v-1h-2l-14-4-3 1m-28 21-1 1-1 1h-1l-1 1-1 1h-1l-1 1h-1l-1 1-1 1-2 1-1 1h-1l-1 1-1 1-2 1h-1l-1 1-1 1h-1l-1 1-2 1-1 1h-1l-2 2-2 1-1 1-2 1-2 1-1 1h-1l-1 1-1 1h-1v1h-1l-1 1h-1l-2 2-2 1h-1l-1 1-4 2v1h-1l-1 1-2 1-1 1h-1l-1 1-1 1h-1l-1 1-4 3h-1l-1 1-1 1h-1l-2 1v1h-2l-1 1-1 1h-1v1l-3 1-1 1h-1l-1 1-3 2-1 1-1 1h-1l-1 1-1 1h-2l-1 1-1 1h-1l-1 1-1 1h-1l-1 1-1 1h-1l-1 1h-1l-1 1-1 1-1 1h-1l-2 1-1 1-2 1-1 1h-1v1h-1l-2 1-2 1-1 1-1 1-1 1-1 1h-1l-1 1h-1l-1 1-1 1h-1l-1 1h-1l-1 1-1 1-2 1h-1l-1 1-1 1h-1l-1 1-1 1-2 1-1 1h-1l-1 1-1 1h-1l-1 1-2 1-3 1v1h-1l-1 1h-1l-1 1-1 1h-1l-1 1-1 1h-1v1h-1l-1 1-1 1h-1l-2 1a26 26 0 0 0-5 3l-2 1-1 1-1 1-1 1h-1l-1 1-1 1h-1l-1 1-1 1-2 1a35 35 0 0 0-5 3h-1v1h-2l-1 1-1 1-1 1-2 1-1 1h-1l-1 1-1 1h-1l-2 2-3 1-1 1-1 1h-2v1h-1l-1 1-1 1h-1l-1 1-2 1-1 1h-1l-1 1-1 1-3 2h-1l-1 1h-1v1h-1l-1 1h-1v1l-2 1h-1l-1 1-1 1h-1v1h-2l-1 1-3 2h-1v1h-1l-1 1-1 1-2 1-1 1-2 1h-1l-1 1-1 1h-1a24 24 0 0 0-6 4l-1 1H4l-1 1-1 1c-2 0-2 2 0 3l2 1h2l1 1h1l1 1h1l1 1h2l1 1h1l1 1h1l1 1 4 1 1 1h1l1 1 2 1h1l1 1h2l3 1v1h2l1 1h1l1 1h2l1 1h1l1 1a578 578 0 0 1 26 11h1l1 1h1l5 2 1 1h1l3 2a73 73 0 0 1 8 3h1l1 1h1l1 1h2v1h2a34 34 0 0 0 4 2 585 585 0 0 1 11 5h1l1 1h2l1 1h1l1 1h1l5 2 4-2 2-1h1l1-1 1-1 1-1h1l1-1 1-1 2-1 1-1 1-1 1-1 2-1h1v-1l2-1 3-2 1-1 2-1 1-1 1-1 1-1 1-1h1l1-1 2-1 1-1 1-1h1l1-1 2-1 1-1h1l1-2 1-1h1l1-1 2-1 1-1 1-1h1l1-1 3-2 2-2h1l1-1 1-1 1-1h1l2-1 1-1 1-1 1-1 1-1 2-1 3-2 1-1h1l1-1 2-1 1-1 1-1 1-1 1-1 2-1h1l1-1 1-1 1-1 2-1 1-1 2-1 1-1 1-1 1-1 2-1h1l1-1 1-1 1-1 4-2 1-1 1-1 1-1 1-1 2-1h1l1-1 1-1 1-1 2-1h1l1-1 1-1 1-1h1l1-1 2-2h1v-1l2-1 1-1 1-1h1l1-1 2-1 1-1h1l1-1 1-1 1-1 2-1 1-1h1l1-1 1-1 1-1 1-1 2-1 3-2 1-1 2-1 1-1 2-1 1-1 1-1 1-1 1-1a85 85 0 0 1 5-7 1412 1412 0 0 1 34-58l-4-1-2-1h-3l-1-1h-3l-1-1h-3l-1-1h-3l-1-1h-2a270 270 0 0 1-22-6v-2l-1-2-1-2v-3l-1-1v-1l-1-2v-2l-1-3-1-2v-2a121 121 0 0 0-3-8c-1-5-1-5-3-4"/>
        <path fill="#848484" d="m344 30-2 3-1 1-1 1c1 0 0 0 0 0l-1 2-3 3-1 1h-1l-3 4c-1 0-1 0 0 0l-1 1-1 2v1h-1l-1 2a531 531 0 0 0-21 27 2278 2278 0 0 0 46 9l1 1v3l1 1v1a67 67 0 0 1 2 8 340 340 0 0 1 7 24l2-2 2-3h1v-1l1-1 3-4 2-2 1-1 3-4 2-3 1-1h1l1-2 2-3 2-2s0-1 0 0l1-1v-1l1-1 4-4 2-2v-1h1l1-2 1-1 1-1 1-1v-8a74 74 0 0 0-1-15l-1-1v-2l-1-1v-1l-1-2v-1l-2-2-2-4-1-1-2-2-2-2v5a1154 1154 0 0 0-1 39l-13 13V57l-1-26-5-1h-2l-2-1h-5l-6-1h-6l-2 2"/>
        <path fill="#272723" d="M315 26a393 393 0 0 1 0 36l5-5a105 105 0 0 1 8-9l1-1v-1a227 227 0 0 1 1-33V1h-4l-5-1h-6v26m58-10 1 16v62l5-5 6-6V73a33093 33093 0 0 0 3-59V1h-4l-6-1h-5v16m-32 17v1l1-1h-1m-78 38v1l1 4v2l1 1v1l1 1v2l1 1v2l1 1v3l1 1v2l1 1v2l1 2v2l1 1v2a49 49 0 0 0 2 7l1 1v2a1531 1531 0 0 1 12-6 15 15 0 0 1 9-14c4-2 11-2 18 0l2 1 4 1 3 1 2 2 2 1h1v1h1l3 2a54 54 0 0 1 10 11c6 8 7 21 2 28l-4 6-1 1-1 2-1 2-3 3c-2 3-2 5-1 5l1 1h3l1 1h3l1 1h3l1 1h3l2 1 5 1h3l1 1h3l1 1h3l1 1h6l-1-1v-2l-1-3-1-3v-2l-1-2v-2l-1-2v-2l-1-2v-2l-1-1v-3l-1-1v-3l-1-1v-3l-1-1v-3l-1-1v-1l-1-2-1-2a434 434 0 0 0-12-38 71 71 0 0 1-8-2 203 203 0 0 1-21-3 157 157 0 0 1-23-5h-2l-2-1a72 72 0 0 1-13-1l-1-1h-5l-2-1h-4l-2-1h-3"/>
        <path fill="#5f5e13" d="M386 40v1h1c0-2 0-2-1-1m-13 22v9a991 991 0 0 0 0-9m13-10v3a59 59 0 0 0 0-3m-63 3-1 1 1-1 1-1-1 1m-4 4-1 1 1-1 1-1-1 1m67 12v2-3 1m-1 10v1-2 1m-48 27 2 2-1-2-2-1 1 1m-53 1a4864 4864 0 0 0-6 7v2l1 3a465 465 0 0 0 7 26c1 2 0 1 12 4a2456 2456 0 0 1-3-2l1-1 2-1 1-1 1-1h1l2-1 1-1 1-1 1-1 1-1 3 2 4 1-2-1a157 157 0 0 0-4-2 58 58 0 0 1-16-15l-3-6c-1-3-3-8-2-10v-2l-3 2m37 37h1c1 0 1 0 0 0h-1m2 0 4 1-2-1h-2m10 0-2 1h2l2-1h-2m-16 10h2-2m3 1h2-2m2 0 2 1 1-1h-3"/>
        <path fill="#6d6d6d" d="M373 38v3a95 95 0 0 0 0-3m-38 2h1v-1l-1 1m52 1-1 7v5l1-4v-8m-1 22v20l-6 6-6 6-1-13V69v27l7-6 6-6v-3a190 190 0 0 0 0-18m-84 14 1 1c1 0 1 0 0 0l-1-1m3 1h3-3m5 1 6 1-2-1h-4m18 3h3-3m4 0 2 1h1l-3-1m5 1h2-2m4 1h3-3m5 1h2l-2-1h-1l1 1m4 0 2 1v1l-2-2c-1 0 0 0 0 0m3 4c0 1 0 1 0 0v-1 1m0 2 1 1-1-1m1 3 1 3-1-4v1m1 5a68 68 0 0 0 2 5l-2-5m2 9 1 4c1 1 1 1 1-1-1-1-1-4-2-3m2 6v1-1c0-1 0-1 0 0m1 2v2-3 1m1 6v1l1 1v-1l-1-1c0-1 0-1 0 0"/><path fill="#b8ac0c" d="M302 93h2l-1-1-1 1m-3 0c-1 0 0 0 0 0h1-1m10 0h2-2m-20 7c0 1 0 1 0 0l1-1-1 1m-1 3v3-4 1m-1 5v2-2m1 5v3l1 1-1-2v-2c0-1 0-1 0 0m53 1 1 1-1-1v-1 1m-65 0 1 2-1-2m1 3v2l1-1-1-1c0-1 0-1 0 0m12 1v1-2 1m-11 2 1 4-1-5v1m67 1 1 2-2-4 1 2m-53 2 1 2-1-2c-1-2-1-2 0 0m-13 2 1 1a63 63 0 0 1 0 2v-2l-1-1m15 2a49 49 0 0 0 3 3l-3-3-1-2 1 2m53 3v3-5 2m-66-1v1c0 1 0 1 0 0v-1m0 3 1 1v-1h-1m21 3 1 1-1-1m2 2 2 2 3 1 4 2h-1l-8-6h-1l1 1m41 1-1 2v1l1-3m-3 4-1 1h1v-1m-23 3h1l-1-1v1m6 1h3-4 1m6 0h-1 4-3m-43 3 1 1v-1h-1m3 1h2c0 1 1 0 0 0h-2m3 1h2-2m3 0 1 1h1l-2-1m3 1h2-2"/>
        <path fill="#917a0c" d="M303 92h1-1s-1 0 0 0m-9 3h-1l2-1-1 1m-3 2-1 1 1-1 2-1-2 1m34 2 2 1v-1l-2-1v1m13 10 1 1-1-1-1-1 1 1m-51 1a38 38 0 0 0 9 19l-2-2a40 40 0 0 1-7-16l-1-3 1 2m-7 17 1 1v1-2h-1m1 2v2h1l-1-2m18 4 2 2-2-3-2-2 2 3m-17-1v1-1c0-1 0-1 0 0m1 3v1c0 1 0 0 0 0v-2 1m20 1c2 2 2 2 0 0l-1-1 1 1m-20 1 1 2v-1l-1-1m24 2 1 1-1-1h-1 1m33 5-2 1 4-2-2 1m-25 0 3 1-1-1h-2m4 1h2-2m14 1c-1 0-1 0 0 0h2-2m-5 1h2-2"/>
        <path fill="#404040" d="M386 40a295 295 0 0 0-1 33v10l-6 6-5 5v-7l-1-8v8l1 8 5-6 6-6v-3a970 970 0 0 0 1-40m-58 7v1l-4 4-4 5-5 5c0-1 0-1 0 0v1l10-11 4-5h-1m-26 31h1c1 0 1 0 0 0h-1m4 1h3-3m4 0 2 1h1l-3-1m6 1 2 1h1l-1-1h-3 1m4 1h3-4 1m5 1h2-1l-1-1h-1l1 1m4 0 1 1h1l-1-1h-2 1m4 1h3-4 1m4 1h3-1l-2-1h-1l1 1m4 0 3 1-2-1h-1m5 1h2-3 1m4 1 2 1-2-2v1m2 2v2-2m1 3v1-2 1m-50 1h3-3m51 4v2h1l-1-1v-1m1 3v1c0 1 0 1 0 0v-1m0 3 1 1v1-2h-1m-20 3 1 2-1-2-2-1 2 1m21-1v1l1 1-1-2m1 3v2-2m-72 1v1l2-2-2 1m-4 2-2 2a95 95 0 0 0 2-2m76 0 1 1v1-2h-1m2 3c-1 1 1 5 1 5l-1-4v-1m1 6v1c0 1 1 1 0 0v-1m1 3v1-1c0-1 0-1 0 0m0 3h1c0 1 0 1 0 0l-1-1v1m-55 16-1 1-1 1-1 1-2 1h-1l-1 1-1 1-2 1-1 1 3 2a88 88 0 0 1 6 1 93 93 0 0 1 14 4 345 345 0 0 1 15 3l1-4 3-3 1-2 1-2 1-1 1-2 1-2-1 1-2 1h-1l-1 1h-1l-1 1a42 42 0 0 1-24-5c-4-2-4-2-5-1"/>
    </g>
</svg>