<svg xmlns="http://www.w3.org/2000/svg" viewBox="0 0 48 48">
  <defs>
    <linearGradient x2="0" y1="47.85" y2="-2.292" gradientUnits="userSpaceOnUse">
      <stop stop-color="#4da70e"/>
      <stop offset="1" stop-color="#9ded46"/>
    </linearGradient>
  </defs>
  <g transform="translate(-24.891 2.712) scale(.92307)">
    <circle cx="52.97" cy="23.07" r="26" fill="#68af16"/>
    <path fill="#fff" d="m66.804 16.712-2.518-2.518a1.712 1.712 0 0 0-1.259-.518c-.494 0-.914.173-1.259.518L49.62 26.361l-5.444-5.463a1.714 1.714 0 0 0-1.259-.518c-.494 0-.914.173-1.259.518l-2.518 2.518a1.714 1.714 0 0 0-.518 1.259c0 .494.173.914.518 1.259l6.704 6.704 2.519 2.518a1.71 1.71 0 0 0 1.259.518c.494 0 .914-.173 1.259-.518l2.519-2.518 13.407-13.407c.345-.346.518-.766.518-1.259 0-.494-.173-.914-.518-1.259"/>
  </g>
</svg>
