<svg xmlns="http://www.w3.org/2000/svg" version="1.0" viewBox="0 0 1582 270">
  <path d="M681.4 15c-.5.5-10.1 1.1-22.4 1.2l-21.4.3-2.2 6c-2.2 5.8-5.7 15.3-11.4 30.5-1.5 4.1-4 10.6-5.4 14.4-3.7 10-3.5 10-7.2 0-1.4-3.8-3.9-10.3-5.4-14.4-5.7-15.2-9.2-24.7-11.4-30.5l-2.2-6-23.2-.3c-12.8-.1-23.2.1-23.2.6 0 .6 10.5 27.4 14.4 36.7.7 1.6 2.3 5.5 3.6 8.5 1.3 3 3.1 7.4 4.1 9.7 1.1 2.4 1.9 4.7 1.9 5.3 0 .6.5 1.8 1 2.8.6.9 5.5 12.9 11 26.7l10 24.9V234h46V131.5l15.6-39c8.6-21.5 16.1-40.4 16.8-42 2.1-4.8 5.7-13.6 7.8-19 3.9-9.8 5.3-10.7 6.1-4.3.3 2.4 1 6.9 1.6 10 .6 3.2 1.6 8.3 2.1 11.3.6 3 1.5 8.1 2.1 11.2.6 3.2 1.5 7.8 1.9 10.3.7 4.2 1.5 8 4 21.5.6 2.7 1.4 7.5 2 10.5.5 3 1.4 8.2 2.1 11.5.6 3.3 1.5 8 1.9 10.5.4 2.5 1.3 7.1 1.9 10.2.6 3.2 1.6 8.4 2.2 11.5.6 3.2 1.5 7.8 1.9 10.3.4 2.5 1.3 7.2 1.9 10.5.7 3.3 1.6 8.5 2.1 11.5.6 3 1.4 7.7 2 10.5 2.5 13.5 3.3 17.3 4 21.5 2.2 12.2 3 16.4 3.5 18.1.6 1.8 1.7 1.9 25.3 1.7l24.7-.3.6-4c.6-3.7 1.5-9.4 3.9-23.5.5-3 1.4-8.2 2-11.5 2.1-11.3 3-17 3.6-21.8 1.2-9.1 3-6.2 5.4 8.8.6 3.8 1.5 9.2 2 12 .8 4.6 1.6 8.7 4 23 .5 2.7 1.4 7.8 2.1 11.2l1.2 6.3h49.4l.7-3.8c.3-2 1-6 1.5-8.7 2-10.4 3.3-17.1 4.1-21.5.4-2.5 1.3-7.1 1.9-10.3.6-3.1 1.6-8.3 2.2-11.5.6-3.1 1.5-7.7 1.9-10.2.4-2.5 1.3-7.1 1.9-10.3.6-3.1 1.6-8.3 2.2-11.5.6-3.1 1.5-7.7 1.9-10.2.4-2.5 1.3-7.2 1.9-10.5.7-3.3 1.6-8.5 2.1-11.5.6-3 1.4-7.8 2-10.5 2.5-13.5 3.3-17.3 4-21.5.4-2.5 1.3-7.1 1.9-10.3.6-3.1 1.6-8.3 2.2-11.5.6-3.1 1.5-7.7 1.9-10.2.4-2.5 1.3-7.1 1.9-10.3 2.9-15 3.3-17.3 3.4-19.2.2-1.9-.5-2-22.2-2.3-12.4-.1-22.8.1-23.3.6s-1.3 3.3-1.8 6.3c-.6 3-1.4 7.4-2 9.9-.6 2.5-1.5 7-2.1 10-.6 3-1.5 7.4-2 9.7-.5 2.4-1.3 6.2-1.8 8.5-.5 2.4-1.4 7-2.1 10.3-2.1 10.5-3 14.9-4 19.5-.6 2.5-1.5 7-2.1 10-.6 3-1.5 7.4-2 9.7-2.4 11.2-3 14.1-3.5 17.5-.4 2.1-1 3.8-1.4 3.8-.5 0-1.3-3.3-2-7.3-.6-3.9-1.5-9.8-2.1-13-.5-3.1-1.3-8.3-1.8-11.5-.6-3.1-1.5-9.1-2.1-13.2-.6-4.1-1.5-10-2-13s-1.4-9.1-2-13.5c-.6-4.4-1.5-10-2-12.5s-1.4-8.1-2-12.5c-.6-4.4-1.6-10.6-2.2-13.8l-1.1-5.7h-11.8c-7 0-12 .4-12.4 1-.6 1-1.4 5.4-3.5 20-.6 3.6-1.4 9.3-2 12.7-.5 3.5-1.5 9.1-2 12.5-.6 3.5-1.4 9.2-2 12.8-.5 3.6-1.4 9.4-2 13-.5 3.6-1.5 9.6-2.1 13.5-.5 3.8-1.4 9.5-1.9 12.5s-1.3 8.1-1.6 11.2c-.4 3.2-1 5.8-1.4 5.8-1 0-3-4.7-3-7 0-1.8-.5-4.3-3-15-.5-1.9-1.4-6.2-2-9.5-1.9-9.5-3.1-15.6-4.2-20.5-1.9-9-2.7-12.6-3.8-18.5-.6-3.3-1.5-7.6-2-9.5-.5-1.9-1.4-6.2-2-9.5-1.2-6.4-2.1-10.7-4.1-19.8l-1.2-5.7H705c-13.4 0-23 .4-23.6 1zM1190 122v108h93l15.5-15.5L1314 199V45l-15.5-15.5L1283 14h-93v108zm78 0v62h-32V60h32v62zM1462 122v108h108v-46h-62v-38h62v-46h-62V60h62V14h-108v108zM88 75v43H56V33H10v215h46v-84h32l.2 42.2.3 42.3h45l.3-108.3L134 32H88v43zM173.3 47.6 158 63v154.6l15.5 15.2 15.6 15.2h61.8l15.6-15.2 15.5-15.2V63l-15.5-15.5L251 32l-31.2.1-31.3.1-15.2 15.4zM236 140v62h-32V78h32v62zM907.3 47.6 892 63v154.6l15.5 15.2 15.6 15.2h61.8l15.6-15.2 15.5-15.2V63l-15.5-15.5L985 32l-31.2.1-31.3.1-15.2 15.4zM970 140v62h-32V78h32v62zM1057.3 47.6 1042 63v154.6l15.5 15.2 15.6 15.2h61.8l15.6-15.2 15.5-15.2V63l-15.5-15.5L1135 32l-31.2.1-31.3.1-15.2 15.4zM1120 140v62h-32V78h32v62zM306 147v109h108v-46h-62V38h-46v109zM430 147v109h108v-46h-62V38h-46v109zM1338 147v109h108v-46h-62V38h-46v109z"/>
</svg>
