<?xml version="1.0" encoding="UTF-8"?>
<svg  version="1.1" viewBox="0 0 56.356 56.356" xmlns="http://www.w3.org/2000/svg">
 <g transform="translate(106.74 42.267)" strokeWidth=".26458"  >
  <path d="m-91.251 10.68c-0.76491-0.21536-1.6754-0.57804-2.0232-0.80597-1.5823-1.0367-2.7944-3.9291-2.8006-6.6827-0.0028-1.2675-0.12575-1.5586-1.3109-3.1048-7.6207-9.9427-6.9057-23.482 1.7046-32.279 3.3654-3.4384 6.9236-5.5354 11.527-6.7933 3.131-0.85554 9.143-0.84946 12.285 0.01242 8.6086 2.3611 15.233 9.0044 17.662 17.714 0.82353 2.9518 0.80928 9.3076-0.0277 12.356-1.963 7.1484-6.9544 13.064-13.623 16.145-3.0235 1.3969-5.6857 1.9989-9.568 2.1636-2.1315 0.090402-3.5905 0.27004-3.8364 0.47235-0.82927 0.68215-2.3535 0.98837-5.4239 1.0897-2.2767 0.07514-3.5685-6e-3 -4.5657-0.28678z" fill="#fbf7d0"/>
  <path d="m-91.091 10.44c-0.67687-0.18232-1.5321-0.52902-1.9006-0.77045-1.6785-1.0998-2.8218-3.7634-2.8218-6.574 0-1.3066-0.11098-1.6573-0.75931-2.3994-1.3468-1.5415-3.1881-4.6122-4.0373-6.733-2.4058-6.0082-2.3436-12.643 0.17463-18.631 2.255-5.3617 7.4158-10.535 12.749-12.78 3.5857-1.5092 5.4583-1.8659 9.7324-1.8538 3.5381 0.01002 4.2271 0.08925 6.35 0.73016 6.9177 2.0885 12.351 6.5934 15.358 12.734 1.5999 3.2669 2.2582 5.9295 2.4202 9.7895 0.28986 6.9043-2.1826 13.256-7.0574 18.129-4.4178 4.4164-9.8864 6.7613-16.41 7.0364-2.4749 0.10434-3.5403 0.26064-4.2333 0.62102-2.0208 1.051-6.9311 1.4112-9.565 0.70172zm15.65-42.091c1.0914-0.20412 3.1621-0.71383 4.6015-1.1327l2.6172-0.76155-0.72092-0.56707c-0.99472-0.78244-3.3181-1.6185-5.8364-2.1002-2.7019-0.51684-5.9929-0.30895-8.6955 0.54929-1.8027 0.57245-4.574 1.9409-4.3559 2.1509 0.17115 0.16479 5.6693 1.6978 6.9661 1.9423 1.9028 0.35876 3.1742 0.33978 5.4239-0.08098z" fill="#fdf8af"/>
  <path d="m-91.091 10.44c-0.67687-0.18232-1.5321-0.52902-1.9006-0.77045-1.6785-1.0998-2.8218-3.7634-2.8218-6.574 0-1.3066-0.11098-1.6573-0.75931-2.3994-1.3468-1.5415-3.1881-4.6122-4.0373-6.733-2.4058-6.0082-2.3436-12.643 0.17463-18.631 2.255-5.3617 7.4158-10.535 12.749-12.78 3.5857-1.5092 5.4583-1.8659 9.7324-1.8538 3.5381 0.01002 4.2271 0.08925 6.35 0.73016 6.9177 2.0885 12.351 6.5934 15.358 12.734 1.5999 3.2669 2.2582 5.9295 2.4202 9.7895 0.28986 6.9043-2.1826 13.256-7.0574 18.129-4.4178 4.4164-9.8864 6.7613-16.41 7.0364-2.4749 0.10434-3.5403 0.26064-4.2333 0.62102-2.0208 1.051-6.9311 1.4112-9.565 0.70172zm17.502-39.569c5.5393-0.93363 8.9958-1.7547 8.9958-2.1369 0-0.4309-2.6801-2.3878-4.582-3.3456-5.4274-2.7332-12.179-2.7142-17.773 0.05006-1.8042 0.89145-4.6447 3.0929-4.3659 3.3836 0.07361 0.07677 0.90705-0.04049 1.8521-0.26058 2.7597-0.64272 4.9934-0.08858 7.5685 1.8777 1.1682 0.892 1.3495 0.94471 3.2497 0.94465 1.1069-3.5e-5 3.3817-0.23084 5.0552-0.5129z" fill="#fcf08e"/>
  <path d="m-91.091 10.44c-0.67687-0.18232-1.5321-0.52902-1.9006-0.77045-1.6785-1.0998-2.8218-3.7634-2.8218-6.574 0-1.3066-0.11098-1.6573-0.75931-2.3994-1.3468-1.5415-3.1881-4.6122-4.0373-6.733-2.4058-6.0082-2.3436-12.643 0.17463-18.631 2.255-5.3617 7.4158-10.535 12.749-12.78 3.5857-1.5092 5.4583-1.8659 9.7324-1.8538 3.5381 0.01002 4.2271 0.08925 6.35 0.73016 6.9177 2.0885 12.351 6.5934 15.358 12.734 1.5999 3.2669 2.2582 5.9295 2.4202 9.7895 0.28986 6.9043-2.1826 13.256-7.0574 18.129-4.4178 4.4164-9.8864 6.7613-16.41 7.0364-2.4749 0.10434-3.5403 0.26064-4.2333 0.62102-2.0208 1.051-6.9311 1.4112-9.565 0.70172zm6.0488-10.821c0.90374-0.45466 1.6181-0.85068 1.5875-0.88006-0.03062-0.029376-1.082 0.026905-2.3364 0.12507-3.2327 0.25298-3.8432 0.072731-5.2895-1.5617-0.67112-0.75844-1.2834-1.2744-1.3607-1.1467-0.07729 0.12777-0.26714 0.69475-0.42189 1.26-0.22242 0.81236-0.19922 1.1865 0.11076 1.7859 0.21567 0.41706 0.41884 0.76009 0.45148 0.76228 0.03264 0.0021166 0.5356 0.18114 1.1177 0.39765 1.5827 0.58874 4.0999 0.28442 6.1411-0.74245zm10.705-26.507c0.64146-1.4078 4.4082-1.9383 10.317-1.4529 0.82416 0.06771 1.5966 0.0254 1.7164-0.09402 0.79402-0.79102-3.3014-4.6547-6.6545-6.2778-3.3707-1.6317-4.9962-1.9745-9.2604-1.9529-3.2813 0.01663-3.9458 0.09953-5.8208 0.7262-3.8505 1.2869-7.3842 3.6364-9.1636 6.093-1.057 1.4592-0.672 1.6984 0.73716 0.45803 2.899-2.5518 7.2688-2.5842 9.9478-0.07362 0.76629 0.7181 0.96991 1.8294 0.37689 2.0569-0.19289 0.07402-1.1156-0.22728-2.0505-0.66955-2.3911-1.1312-4.9158-1.0004-6.0032 0.31085-0.29554 0.35639 0.03403 0.42563 2.8162 0.59169 1.733 0.10344 3.61 0.35174 4.1712 0.55178 0.67678 0.24128 2.2913 0.36763 4.7962 0.37533 3.7653 0.01158 3.7768 0.0098 4.0742-0.64298z" fill="#fced6f"/>
  <path d="m-91.091 10.44c-0.67687-0.18232-1.5321-0.52902-1.9006-0.77045-1.6785-1.0998-2.8218-3.7634-2.8218-6.574 0-1.3066-0.11098-1.6573-0.75931-2.3994-1.3468-1.5415-3.1881-4.6122-4.0373-6.733-2.4058-6.0082-2.3436-12.643 0.17463-18.631 2.255-5.3617 7.4158-10.535 12.749-12.78 3.5857-1.5092 5.4583-1.8659 9.7324-1.8538 3.5381 0.01002 4.2271 0.08925 6.35 0.73016 6.9177 2.0885 12.351 6.5934 15.358 12.734 1.5999 3.2669 2.2582 5.9295 2.4202 9.7895 0.28986 6.9043-2.1826 13.256-7.0574 18.129-4.4178 4.4164-9.8864 6.7613-16.41 7.0364-2.4749 0.10434-3.5403 0.26064-4.2333 0.62102-2.0208 1.051-6.9311 1.4112-9.565 0.70172zm6.3239-9.1838c0.33772-0.12789 0.59531-0.44944 0.59531-0.74313 0-0.71445 1.0533-1.3895 3.7693-2.4155 1.2728-0.48083 2.2848-0.90319 2.2489-0.93858-0.03583-0.035393-1.732 0.27742-3.7693 0.69515-2.0373 0.41772-4.5811 0.76463-5.6528 0.7709-1.9179 0.011218-1.9632-0.00429-2.8669-0.98078-0.50503-0.5457-1.1061-1.455-1.3357-2.0206-0.37409-0.92162-0.45209-0.98099-0.75125-0.57187-0.56303 0.76999-1.0344 4.011-0.69253 4.7614 0.37209 0.81665 1.4071 1.502 2.6569 1.7594 1.1076 0.22808 4.9078 0.020717 5.798-0.31638zm11.486-25.638c1.88-0.88938 2.4918-0.95826 3.7695-0.42441 0.74913 0.31301 1.3044 0.31606 3.6295 0.01995 3.5572-0.45303 5.5232-1.0478 5.5232-1.6709 0-1.1512-2.6026-4.3941-5.0161-6.2501-6.665-5.1255-15.855-5.6843-23.162-1.4083-3.3037 1.9332-7.4304 6.6727-6.9346 7.9645 0.15838 0.41272 0.46538 0.50319 4.1565 1.2248 2.1986 0.42985 2.5798 0.4439 3.0427 0.11214 0.29104-0.2086 0.93372-0.67298 1.4282-1.032 0.5756-0.41788 1.2558-0.65267 1.8908-0.65267 0.82451 0 1.1295 0.16735 1.8084 0.99218 0.44913 0.5457 0.99725 1.2005 1.218 1.4552 0.34205 0.39453 0.88709 0.46302 3.6849 0.46302 3.0989 0 3.3778-0.04461 4.9609-0.79354zm0.02376-1.3257c-0.4005-0.16482-0.59531-0.46864-0.59531-0.92846 0-1.1289 1.3857-1.55 5.1594-1.5677 2.6655-0.01248 3.3448 0.07006 4.2333 0.5143 0.70555 0.35278 1.0583 0.70555 1.0583 1.0583 0 0.49842-0.23055 0.5386-3.9687 0.69164-2.1828 0.08936-4.2664 0.23321-4.6302 0.31965-0.3638 0.08645-0.92934 0.04694-1.2568-0.08781zm-19.509-1.8363c-0.6296-1.9837 3.7749-4.2337 7.0755-3.6146 1.2154 0.22801 3.2051 1.5708 3.5947 2.426 0.61392 1.3474-0.21062 1.5264-2.3799 0.5165-2.189-1.019-4.3584-0.82284-6.2263 0.56312-1.024 0.75977-1.8437 0.80305-2.064 0.10898z" fill="#fdea4f"/>
  <path d="m-91.091 10.44c-0.67687-0.18232-1.5321-0.52902-1.9006-0.77045-1.6785-1.0998-2.8218-3.7634-2.8218-6.574 0-1.3066-0.11098-1.6573-0.75931-2.3994-1.3468-1.5415-3.1881-4.6122-4.0373-6.733-2.4058-6.0082-2.3436-12.643 0.17463-18.631 2.255-5.3617 7.4158-10.535 12.749-12.78 3.5857-1.5092 5.4583-1.8659 9.7324-1.8538 3.5381 0.01002 4.2271 0.08925 6.35 0.73016 6.9177 2.0885 12.351 6.5934 15.358 12.734 1.5999 3.2669 2.2582 5.9295 2.4202 9.7895 0.28986 6.9043-2.1826 13.256-7.0574 18.129-4.4178 4.4164-9.8864 6.7613-16.41 7.0364-2.4749 0.10434-3.5403 0.26064-4.2333 0.62102-2.0208 1.051-6.9311 1.4112-9.565 0.70172zm6.3239-9.1838c0.33772-0.12789 0.59531-0.44944 0.59531-0.74313 0-0.71445 1.0533-1.3895 3.7693-2.4155 1.2728-0.48083 2.2848-0.90319 2.2489-0.93858-0.03583-0.035393-1.732 0.27742-3.7693 0.69515-2.0373 0.41772-4.5811 0.76463-5.6528 0.7709-1.9179 0.011218-1.9632-0.00429-2.8669-0.98078-0.50503-0.5457-1.1061-1.455-1.3357-2.0206-0.37409-0.92162-0.45209-0.98099-0.75125-0.57187-0.56303 0.76999-1.0344 4.011-0.69253 4.7614 0.37209 0.81665 1.4071 1.502 2.6569 1.7594 1.1076 0.22808 4.9078 0.020717 5.798-0.31638zm5.0406-20.003c3.5382-0.08862 4.9454-0.03559 5.2255 0.19691 0.44224 0.36702 0.45786 0.23188 0.13435-1.1623-0.34371-1.4812 0.24943-3.537 1.2884-4.4652 1.1999-1.0721 2.8874-1.0421 3.8214 0.06789 0.76768 0.91233 1.0931 2.2451 0.87551 3.5859l-0.14901 0.91827 0.6728-0.52922c0.37004-0.29107 1.0809-0.60578 1.5797-0.69936 0.85502-0.1604 3.488-2.479 5.3233-4.6876 0.77117-0.92806 0.75338-1.1533-0.21124-2.6743-2.4775-3.9066-6.8224-7.0012-11.784-8.3926-2.707-0.75922-7.053-0.81569-9.7671-0.12692-4.0399 1.0252-8.0819 3.558-10.732 6.7249-1.9338 2.3107-2.4609 3.6018-1.7693 4.333 0.1819 0.19229 0.64443 0.76634 1.0278 1.2757 1.5837 2.1037 3.037 3.3877 4.2132 3.7223 0.64627 0.18383 1.5322 0.66512 1.9688 1.0695 1.0196 0.94454 1.9467 1.3188 2.7781 1.1215 0.3638-0.08632 2.8404-0.21151 5.5036-0.27821zm-7.7455-0.94497c-0.84749-0.84749-0.93306-1.0702-0.93306-2.4279 0-2.5009 1.4738-4.3789 3.4363-4.3789 1.8384 0 3.0014 2.2066 2.3798 4.5152-0.40415 1.5009-1.7287 2.8715-2.9649 3.068-0.87401 0.13893-1.0904 0.05132-1.9182-0.77646zm14.214-6.0156c-0.4005-0.16482-0.59531-0.46864-0.59531-0.92846 0-1.1289 1.3857-1.55 5.1594-1.5677 2.6655-0.01248 3.3448 0.07006 4.2333 0.5143 0.70555 0.35278 1.0583 0.70555 1.0583 1.0583 0 0.49842-0.23055 0.5386-3.9687 0.69164-2.1828 0.08936-4.2664 0.23321-4.6302 0.31965-0.3638 0.08645-0.92934 0.04694-1.2568-0.08781zm-19.509-1.8363c-0.6296-1.9837 3.7749-4.2337 7.0755-3.6146 1.2154 0.22801 3.2051 1.5708 3.5947 2.426 0.61392 1.3474-0.21062 1.5264-2.3799 0.5165-2.189-1.019-4.3584-0.82284-6.2263 0.56312-1.024 0.75977-1.8437 0.80305-2.064 0.10898z" fill="#fbd14d"/>
  <path d="m-91.091 10.44c-0.67687-0.18232-1.5321-0.52902-1.9006-0.77045-1.6785-1.0998-2.8218-3.7634-2.8218-6.574 0-1.3066-0.11098-1.6573-0.75931-2.3994-1.3468-1.5415-3.1881-4.6122-4.0373-6.733-2.4058-6.0082-2.3436-12.643 0.17463-18.631 2.255-5.3617 7.4158-10.535 12.749-12.78 3.5857-1.5092 5.4583-1.8659 9.7324-1.8538 3.5381 0.01002 4.2271 0.08925 6.35 0.73016 6.9177 2.0885 12.351 6.5934 15.358 12.734 1.5999 3.2669 2.2582 5.9295 2.4202 9.7895 0.28986 6.9043-2.1826 13.256-7.0574 18.129-4.4178 4.4164-9.8864 6.7613-16.41 7.0364-2.4749 0.10434-3.5403 0.26064-4.2333 0.62102-2.0208 1.051-6.9311 1.4112-9.565 0.70172zm5.3317-7.0664c3.1937-0.49531 2.94-0.30382 2.8541-2.1542l-0.07597-1.6353 1.7198-0.69692c0.94588-0.3833 2.7483-0.96823 4.0053-1.2998 2.7293-0.72 3.1269-0.92031 2.6913-1.3559-0.31151-0.31151-0.77472-0.2319-9.607 1.651-5.3686 1.1445-6.9881 0.19235-7.6322-4.4869-0.26469-1.9229-0.67118-2.8286-1.1396-2.5391-0.13731 0.084865-0.17028 0.81404-0.07492 1.6569 0.12202 1.0785 0.01249 2.2338-0.38624 4.0742-0.8835 4.0779-0.67067 5.8574 0.83098 6.9482 0.49018 0.35604 0.99867 0.40412 2.8458 0.26908 1.2369-0.090431 3.0229-0.28444 3.9687-0.43114zm12.519-10.315c-1.05-1.05-8.4311-2.1985-10.403-1.6186-0.7974 0.23452-0.70035 0.25229 0.69867 0.12792 2.0529-0.1825 5.3567 0.29377 7.6866 1.1081 2.0521 0.71723 2.4224 0.78744 2.0175 0.38258zm-6.4867-11.806c3.7474-0.09386 4.9366-0.04288 5.2599 0.22546 0.37212 0.30884 0.39553 0.24608 0.21409-0.57411-0.31314-1.4156-0.2152-2.2969 0.39537-3.5582 0.6498-1.3423 0.98832-1.668 2.05-1.9725 1.8353-0.52637 3.2065 0.98433 3.323 3.6611l0.05499 1.2637 0.69675-0.5151c0.43157-0.31906 1.4889-0.61933 2.7781-0.78896 2.7772-0.36541 5.4677-1.1454 6.0072-1.7415 1.359-1.5017-2.8915-7.8525-7.2331-10.807-3.5337-2.4051-7.3213-3.5803-11.642-3.6122-3.7681-0.02787-5.7434 0.43991-9.5047 2.2509-2.4534 1.1813-3.0394 1.6096-5.3085 3.8804-2.6446 2.6466-4.2508 5.1512-4.637 7.2303-0.17273 0.93-0.13526 0.99649 0.83732 1.4859 0.55998 0.28179 1.673 0.65308 2.4733 0.82508 4.7582 1.0226 5.1758 1.1551 5.9531 1.8895 1.0111 0.95526 1.9397 1.335 2.7781 1.1361 0.3638-0.08632 2.8404-0.21151 5.5036-0.27821zm-6.6942-0.2713c-2.0783-0.49085-2.5034-3.773-0.78387-6.0526 1.3441-1.7819 3.2058-1.7106 4.1729 0.15997 0.83196 1.6093 0.20167 4.4347-1.1927 5.3462-0.78984 0.51636-1.5368 0.70221-2.1963 0.54645zm12.664-7.0821c-0.48075-1.2528 1.3021-2.0098 4.7985-2.0374 3.4795-0.02748 5.6585 0.71989 5.2445 1.7988-0.12681 0.33047-0.56894 0.39608-2.3039 0.3419-1.1808-0.03688-3.3646 0.03061-4.8528 0.14996-2.4654 0.19772-2.722 0.17522-2.8864-0.25323zm-18.705-1.1039c-0.09701-0.09701-0.17639-0.50506-0.17639-0.90678 0-2.0193 4.909-3.8762 7.5895-2.8708 1.2069 0.45269 2.6299 1.5412 2.959 2.2636 0.60731 1.3329-0.2256 1.5082-2.3864 0.50235-2.1838-1.0166-4.2155-0.83307-6.3054 0.56965-0.94858 0.63669-1.3739 0.74855-1.6804 0.442z" fill="#ceb495"/>
  <path d="m-90.919 10.175c-0.7276-0.17765-1.6552-0.54161-2.0614-0.80878-1.4621-0.96181-2.5688-3.8259-2.5688-6.6477 0-1.0274-0.19265-1.4367-1.4569-3.0958-3.8382-5.0367-5.6551-11.386-4.9351-17.245 1.2969-10.553 8.3486-18.43 18.765-20.96 2.6867-0.65261 7.7761-0.58954 10.726 0.13292 8.6456 2.1175 15.338 8.6916 17.688 17.375 0.82008 3.0303 0.82008 8.8759 0 11.906-1.1749 4.3414-3.7433 8.6581-6.8784 11.561-4.4991 4.1654-9.7163 6.2443-16.14 6.4314-2.4591 0.071622-3.3768 0.19524-3.7138 0.50025-1.1632 1.0526-6.591 1.5428-9.4241 0.85107zm5.1594-6.801c3.1937-0.49531 2.94-0.30382 2.8541-2.1542l-0.07597-1.6353 1.7198-0.69692c0.94588-0.3833 2.7483-0.96823 4.0053-1.2998 2.7293-0.72 3.1269-0.92031 2.6913-1.3559-0.31151-0.31151-0.77472-0.2319-9.607 1.651-5.3686 1.1445-6.9881 0.19235-7.6322-4.4869-0.26469-1.9229-0.67118-2.8286-1.1396-2.5391-0.13731 0.084865-0.17028 0.81404-0.07492 1.6569 0.12202 1.0785 0.01249 2.2338-0.38624 4.0742-0.8835 4.0779-0.67067 5.8574 0.83098 6.9482 0.49018 0.35604 0.99867 0.40412 2.8458 0.26908 1.2369-0.090431 3.0229-0.28444 3.9687-0.43114zm12.519-10.315c-1.05-1.05-8.4311-2.1985-10.403-1.6186-0.7974 0.23452-0.70035 0.25229 0.69867 0.12792 2.0529-0.1825 5.3567 0.29377 7.6866 1.1081 2.0521 0.71723 2.4224 0.78744 2.0175 0.38258zm-6.4867-11.806c3.7474-0.09386 4.9366-0.04288 5.2599 0.22546 0.37212 0.30884 0.39553 0.24608 0.21409-0.57411-0.31314-1.4156-0.2152-2.2969 0.39537-3.5582 0.6498-1.3423 0.98832-1.668 2.05-1.9725 1.8353-0.52637 3.2065 0.98433 3.323 3.6611l0.05499 1.2637 0.69675-0.5151c0.43157-0.31906 1.4889-0.61933 2.7781-0.78896 2.7772-0.36541 5.4677-1.1454 6.0072-1.7415 1.359-1.5017-2.8915-7.8525-7.2331-10.807-3.5337-2.4051-7.3213-3.5803-11.642-3.6122-3.7681-0.02787-5.7434 0.43991-9.5047 2.2509-2.4534 1.1813-3.0394 1.6096-5.3085 3.8804-2.6446 2.6466-4.2508 5.1512-4.637 7.2303-0.17273 0.93-0.13526 0.99649 0.83732 1.4859 0.55998 0.28179 1.673 0.65308 2.4733 0.82508 4.7582 1.0226 5.1758 1.1551 5.9531 1.8895 1.0111 0.95526 1.9397 1.335 2.7781 1.1361 0.3638-0.08632 2.8404-0.21151 5.5036-0.27821zm-6.6942-0.2713c-2.0783-0.49085-2.5034-3.773-0.78387-6.0526 1.3441-1.7819 3.2058-1.7106 4.1729 0.15997 0.83196 1.6093 0.20167 4.4347-1.1927 5.3462-0.78984 0.51636-1.5368 0.70221-2.1963 0.54645zm12.664-7.0821c-0.48075-1.2528 1.3021-2.0098 4.7985-2.0374 3.4795-0.02748 5.6585 0.71989 5.2445 1.7988-0.12681 0.33047-0.56894 0.39608-2.3039 0.3419-1.1808-0.03688-3.3646 0.03061-4.8528 0.14996-2.4654 0.19772-2.722 0.17522-2.8864-0.25323zm-18.705-1.1039c-0.09701-0.09701-0.17639-0.50506-0.17639-0.90678 0-1.4245 2.9753-3.1502 5.4316-3.1502 2.5439 0 5.6858 2.0298 5.2218 3.3734-0.17098 0.4951-0.66862 0.40668-2.2089-0.39246-2.1192-1.0995-3.9163-1.0202-5.9979 0.26458-1.6306 1.0065-1.9581 1.1235-2.2702 0.81138z" fill="#fdd031"/>
  <path d="m-90.919 10.175c-0.7276-0.17765-1.6552-0.54161-2.0614-0.80878-1.4621-0.96181-2.5688-3.8259-2.5688-6.6477 0-1.0274-0.19265-1.4367-1.4569-3.0958-3.8382-5.0367-5.6551-11.386-4.9351-17.245 1.2969-10.553 8.3486-18.43 18.765-20.96 2.6867-0.65261 7.7761-0.58954 10.726 0.13292 8.6456 2.1175 15.338 8.6916 17.688 17.375 0.82008 3.0303 0.82008 8.8759 0 11.906-1.1749 4.3414-3.7433 8.6581-6.8784 11.561-4.4991 4.1654-9.7163 6.2443-16.14 6.4314-2.4591 0.071622-3.3768 0.19524-3.7138 0.50025-1.1632 1.0526-6.591 1.5428-9.4241 0.85107zm5.5307-6.1061c1.2956-0.35054 2.5392-0.82084 2.7635-1.0451 0.36732-0.36731 0.36329-0.50107-0.04058-1.348-0.5912-1.2398-0.56606-1.6036 0.14522-2.1018 0.53079-0.37178 3.5131-1.3872 6.8147-2.3204 0.73238-0.207 1.1906-0.48926 1.1906-0.73339 0-0.58458-1.653-0.40836-6.4823 0.69108-4.6056 1.0485-7.2048 1.3446-8.2422 0.93902-1.2862-0.5029-2.0955-1.925-2.3897-4.1991-0.27451-2.1223-0.81861-3.4011-1.3162-3.0936-0.18163 0.11225-0.2217 0.71907-0.11169 1.6914 0.11993 1.06 0.01634 2.264-0.3442 4.0005-0.28366 1.3663-0.58403 2.9731-0.66747 3.5706-0.19546 1.3997 0.46825 3.6608 1.2315 4.1953 0.92201 0.6458 4.6005 0.52402 7.4488-0.2466zm5.8464-8.6124c3.4457-0.85407 5.7081-0.98536 6.7468-0.39154 0.77307 0.44193 2.2758 0.51696 2.5176 0.1257 0.09217-0.14914 0.9624-0.67571 1.9338-1.1702 0.97527-0.4964 2.1217-1.3335 2.56-1.8692 0.43656-0.53364 1.1037-1.3465 1.4824-1.8064 0.60439-0.7338 2.2212-3.9739 2.2216-4.4521 8.2e-5 -0.09701 0.08944-0.26568 0.19858-0.37482 0.10914-0.10914 0.19844-0.51972 0.19844-0.9124 0-0.39268 0.23812-1.0167 0.52916-1.3867 0.29104-0.37 0.52916-0.78455 0.52916-0.92124 0-0.13668 0.25417-0.53462 0.56483-0.8843 0.31066-0.34969 0.86052-1.2726 1.2219-2.0509 0.6013-1.2949 0.63243-1.5379 0.36663-2.8614-1.3891-6.9171-10.241-13.87-18.538-14.56-7.5755-0.63037-16.727 5.1632-19.9 12.598-0.9604 2.2506-0.97607 3.7128-0.05841 5.4472 0.38435 0.72644 0.78073 1.3803 0.88084 1.4531 0.35158 0.25553 1.5564 2.7907 1.8861 3.9687 0.59912 2.1406 1.1985 3.0348 2.7043 4.0346 1.1171 0.7417 1.6149 1.301 2.1726 2.441 0.70432 1.4396 1.7195 2.5202 2.3676 2.5202 0.1761 0 0.53568 0.23812 0.79907 0.52916 0.26339 0.29104 0.62445 0.52916 0.80236 0.52916 0.17791 0 0.47169 0.17859 0.65284 0.39687 0.47484 0.57215 1.5741 0.48645 5.1594-0.4022zm5.5161-2.7779c-2.8388-1.0983-5.7056-1.5432-8.745-1.3572-2.4942 0.15261-2.7304 0.12551-2.9806-0.34206-0.20304-0.37939-0.17074-0.60883 0.12774-0.90731 1.304-1.304 9.5935-0.61167 13.076 1.0922 1.0042 0.49127 1.4163 1.5374 0.7675 1.9486-0.44827 0.28414-0.33073 0.30686-2.2461-0.43415zm0.84022-10.812c-1.3068-1.3068-1.3758-3.7169-0.15559-5.4306 1.0064-1.4133 3.2588-1.5181 4.1125-0.19144 1.9671 3.0573-1.5394 8.0394-3.9569 5.622zm-13.603-1.3149c-0.89201-0.50959-1.3318-1.4334-1.3427-2.8207-0.01161-1.4798 0.68501-2.8438 1.863-3.6476 1.059-0.72262 1.9487-0.61015 2.8122 0.35548 2.217 2.4793-0.61135 7.6673-3.3325 6.1128zm13.032-6.6515c-0.48075-1.2528 1.3021-2.0098 4.7985-2.0374 3.4795-0.02748 5.6585 0.71989 5.2445 1.7988-0.12681 0.33047-0.56894 0.39608-2.3039 0.3419-1.1808-0.03688-3.3646 0.03061-4.8528 0.14996-2.4654 0.19772-2.722 0.17522-2.8864-0.25323zm-18.705-1.1039c-0.09701-0.09701-0.17639-0.50506-0.17639-0.90678 0-1.4245 2.9753-3.1502 5.4316-3.1502 2.5439 0 5.6858 2.0298 5.2218 3.3734-0.17098 0.4951-0.66862 0.40668-2.2089-0.39246-2.1192-1.0995-3.9163-1.0202-5.9979 0.26458-1.6306 1.0065-1.9581 1.1235-2.2702 0.81138z" fill="#f8b62b"/>
  <path d="m-90.919 10.175c-0.7276-0.17765-1.6552-0.54161-2.0614-0.80878-1.4621-0.96181-2.5688-3.8259-2.5688-6.6477 0-1.0274-0.19265-1.4367-1.4569-3.0958-2.7746-3.641-4.3619-7.5788-4.9351-12.243-0.6614-5.3819 0.85046-11.328 4.1008-16.127 1.4798-2.185 4.2688-5.012 4.6887-4.7525 0.20051 0.12392 0.26328 0.09587 0.15986-0.07146-0.21978-0.35562 0.50652-0.96453 0.87721-0.73543 0.1555 0.0961 0.25001 0.01706 0.21003-0.17566-0.03999-0.19272 0.13099-0.33464 0.37994-0.31538 0.24895 0.01926 0.42755-0.08492 0.39687-0.23151-0.03067-0.14659 0.10963-0.32662 0.31179-0.40007 0.24654-0.08957 0.29841-0.02166 0.15756 0.20624-0.13872 0.22446-0.10486 0.27481 0.09978 0.14833 0.17038-0.1053 0.2439-0.29805 0.16338-0.42833-0.20246-0.32758 2.0726-1.4394 4.8375-2.3641 4.3404-1.4516 8.5301-1.6149 13.259-0.51684 2.5041 0.58143 6.7759 2.4674 6.5214 2.8792-0.09372 0.15164-0.0061 0.20769 0.20064 0.12835 0.20186-0.07746 0.65452 0.11157 1.0059 0.42006 0.3514 0.30849 0.46032 0.47321 0.24204 0.36603-0.22946-0.11267-0.30529-0.09469-0.17976 0.04261 0.11941 0.13061 0.41676 0.239 0.66077 0.24086 0.24401 0.0019 0.44664 0.18197 0.45028 0.40025 0.0037 0.21828 0.19641 0.36554 0.42837 0.32724 0.4731-0.07811 3.4073 2.9159 4.7024 4.7982 1.2749 1.8531 2.8619 5.3449 3.5025 7.7068 0.82146 3.0287 0.82208 8.8732 0.0013 11.906-1.1749 4.3414-3.7433 8.6581-6.8784 11.561-4.4991 4.1654-9.7163 6.2443-16.14 6.4314-2.4591 0.071622-3.3768 0.19524-3.7138 0.50025-1.1632 1.0526-6.591 1.5428-9.4241 0.85107zm4.9488-4.4214c1.3027-0.30583 2.6464-0.50294 2.986-0.43802 0.56141 0.10732 0.60524 0.042577 0.48263-0.71298-0.0921-0.56757-8.47e-4 -0.94225 0.28789-1.1819 0.53275-0.44215 0.54655-1.4414 0.02588-1.8736-0.21828-0.18116-0.39687-0.619-0.39687-0.97299 0-0.52795 0.26912-0.76264 1.4975-1.3059 0.8236-0.36424 2.6988-0.98409 4.1672-1.3774 2.1285-0.57021 2.7227-0.83528 2.9309-1.3076 0.32256-0.73159 0.56298-0.74794 0.92944-0.063198 0.34841 0.65101 0.10733 1.1392-1.1689 2.367-1.6002 1.5394-1.3426 1.5709 2.6389 0.32205 2.4591-0.77132 5.3841-2.5057 7.5974-4.5048 2.3902-2.1589 5.0155-6.9018 5.3972-9.7504 0.0933-0.69633 0.45568-2.0313 0.80531-2.9665 0.68704-1.8378 0.66858-2.6948-0.11151-5.1787-1.9505-6.2103-6.7596-10.886-14.348-13.949l-2.5303-1.0214 1.4552 0.17597c0.80036 0.09678 1.7308 0.28024 2.0677 0.40768 0.85062 0.32177 1.3928 0.25947 0.57809-0.06643-3.212-1.2849-9.2274-1.4697-13.288-0.40827-1.4151 0.36985-2.7843 0.80814-3.0427 0.97399-0.42722 0.27417-0.42183 0.28558 0.05931 0.12576 1.3901-0.46174 4.6726-1.2171 4.9244-1.1331 0.15579 0.05193-0.87786 0.56367-2.297 1.1372-3.4503 1.3944-6.6903 3.5757-9.1117 6.1345-2.2275 2.3538-3.4708 4.2915-4.4047 6.8643-0.95959 2.6436-1.062 4.4189-0.35655 6.1828 0.32006 0.80036 0.69008 2.2083 0.82227 3.1287 0.22571 1.5717 1.8334 5.4133 2.4161 5.7735 0.13901 0.08591 0.44757-0.038624 0.68569-0.27674 0.40087-0.40087 0.45464-0.3004 0.72576 1.3563 0.25932 1.5846 0.21923 2.1375-0.35041 4.8334-0.79759 3.7747-0.76299 6.7007 0.0929 7.8549 1.0592 1.4283 4.0089 1.7487 7.8333 0.85086zm-4.2469-8.831c-0.77263-0.87998-0.91339-1.3162-1.197-3.7098-0.06897-0.58208-0.21176-1.4589-0.3173-1.9485-0.18281-0.84799-0.16512-0.87581 0.37366-0.58746 0.80119 0.42878 1.263 1.4643 1.5873 3.5594 0.32874 2.1236 0.7534 2.6885 2.403 3.1967l1.2109 0.37308-1.6262 0.018415c-1.5352 0.017409-1.6715-0.033081-2.4343-0.90195zm15.237-4.6613c-2.9384-0.97012-6.7508-1.466-8.4631-1.1008-0.95513 0.20371-1.3577 0.18462-1.7161-0.081378-0.44211-0.32815-0.44295-0.37316-0.01497-0.80748 1.0696-1.0855 7.5018-0.64633 11.453 0.78197 1.343 0.48549 1.5875 0.67216 1.5875 1.2122 0 0.35107-0.11906 0.66582-0.26458 0.69944-0.14552 0.033615-1.3073-0.28314-2.5818-0.70391zm1.7813-10.722c-1.832-1.9768-0.47495-6.1855 1.9944-6.1855 2.4733 0 3.242 3.7926 1.2062 5.9511-1.1072 1.1739-2.2522 1.2578-3.2007 0.23432zm-13.692-1.2245c-0.24135-0.1819-0.62921-0.79232-0.8619-1.3565-1.3511-3.2759 2.3416-7.0548 4.3718-4.4739 0.78443 0.99724 0.93078 2.2936 0.41222 3.6515-0.77433 2.0276-2.702 3.0985-3.9221 2.1789zm13.134-6.4147c-0.48075-1.2528 1.3021-2.0098 4.7985-2.0374 3.4795-0.02748 5.6585 0.71989 5.2445 1.7988-0.12681 0.33047-0.56894 0.39608-2.3039 0.3419-1.1808-0.03688-3.3646 0.03061-4.8528 0.14996-2.4654 0.19772-2.722 0.17522-2.8864-0.25323zm-18.705-1.1039c-0.09701-0.09701-0.17639-0.50506-0.17639-0.90678 0-1.4245 2.9753-3.1502 5.4316-3.1502 2.5439 0 5.6858 2.0298 5.2218 3.3734-0.17098 0.4951-0.66862 0.40668-2.2089-0.39246-2.1192-1.0995-3.9163-1.0202-5.9979 0.26458-1.6306 1.0065-1.9581 1.1235-2.2702 0.81138zm25.371-8.9601c-0.28247-0.21365-0.63966-0.38424-0.79375-0.37908-0.15409 0.0052 0.01749 0.17953 0.3813 0.3875 0.85705 0.48993 1.0657 0.48568 0.41245-0.0084zm-1.9999-0.91762c-0.21828-0.14106-0.51594-0.25648-0.66146-0.25648-0.14552 0-0.08599 0.11542 0.13229 0.25648 0.21828 0.14106 0.51594 0.25648 0.66146 0.25648s0.08599-0.11542-0.13229-0.25648z" fill="#d0a45e"/>
  <path d="m-90.242 9.9778c-1.9303-0.32013-2.9005-0.93582-3.821-2.4246-0.65178-1.0542-0.79435-1.618-0.93341-3.6913l-0.16412-2.447-1.3865-1.7084c-6.5925-8.1227-6.9007-20.074-0.74038-28.707 2.5721-3.6045 7.0472-6.8582 11.263-8.189 1.9318-0.60977 4.4991-1.1437 4.2333-0.88031-0.07276 0.07208-1.3058 0.6189-2.7401 1.2151-3.4583 1.4377-6.5074 3.5076-8.9154 6.0523-2.2162 2.342-3.4602 4.2824-4.3929 6.8519-0.95959 2.6436-1.062 4.4189-0.35655 6.1828 0.32006 0.80036 0.69008 2.2083 0.82227 3.1287 0.22571 1.5717 1.8334 5.4133 2.4161 5.7735 0.13901 0.08591 0.44757-0.038624 0.68569-0.27674 0.40087-0.40087 0.45466-0.30029 0.72604 1.3578 0.25818 1.5774 0.21951 2.1374-0.32468 4.7011-1.0678 5.0307-0.72148 7.9784 1.0355 8.8126 1.3969 0.66327 4.0958 0.68409 6.7651 0.052168 1.3574-0.32135 2.7459-0.53115 3.0855-0.46623 0.56141 0.10732 0.60524 0.042577 0.48263-0.71298-0.0921-0.56757-8.47e-4 -0.94225 0.28789-1.1819 0.53275-0.44215 0.54655-1.4414 0.02588-1.8736-0.21828-0.18116-0.39687-0.619-0.39687-0.97299 0-0.52795 0.26912-0.76264 1.4975-1.3059 0.8236-0.36424 2.6988-0.98409 4.1672-1.3774 2.1285-0.57021 2.7227-0.83528 2.9309-1.3076 0.32256-0.73159 0.56298-0.74794 0.92944-0.063198 0.34841 0.65101 0.10733 1.1392-1.1689 2.367-1.6002 1.5394-1.3426 1.5709 2.6389 0.32205 2.4591-0.77132 5.3841-2.5057 7.5974-4.5048 2.3902-2.1589 5.0155-6.9018 5.3972-9.7504 0.0933-0.69633 0.45568-2.0313 0.80531-2.9665 0.68704-1.8378 0.66858-2.6948-0.11151-5.1787-1.9505-6.2103-6.7596-10.886-14.348-13.949l-2.5303-1.0214 1.444 0.17548c5.8505 0.71097 12.455 5.2626 15.714 10.829 5.4568 9.3218 3.9356 21.168-3.6984 28.802-4.4216 4.4216-9.8254 6.7008-16.414 6.9231-2.5391 0.085672-3.4338 0.21929-4.2333 0.63225-1.8484 0.95471-5.2676 1.2759-8.274 0.77731zm0.02471-13.055c-0.77263-0.87998-0.91339-1.3162-1.197-3.7098-0.06897-0.58208-0.21176-1.4589-0.3173-1.9485-0.18281-0.84799-0.16511-0.87581 0.37366-0.58746 0.80119 0.42878 1.263 1.4643 1.5873 3.5594 0.32874 2.1236 0.7534 2.6885 2.403 3.1967l1.2109 0.37308-1.6262 0.018415c-1.5352 0.017409-1.6715-0.033081-2.4343-0.90195zm16.364-4.5319c-2.289-0.99992-5.3256-1.4909-8.4063-1.3591-3.0645 0.13106-3.6493-0.031716-2.8795-0.80147 0.64809-0.64809 4.3959-0.75098 7.3749-0.20248 3.5395 0.65171 5.6091 1.4459 5.7152 2.1931 0.10185 0.71696-0.4361 0.76763-1.8043 0.16994zm0.65477-10.852c-1.2417-1.3398-1.081-3.8418 0.3332-5.187 1.1194-1.0649 1.9499-1.1638 2.9194-0.34801 1.4787 1.2443 1.4506 3.7075-0.0605 5.3097-1.0984 1.1646-2.2465 1.2456-3.1921 0.22527zm-13.904-1.6672c-0.63427-0.63427-0.77339-0.99595-0.77339-2.0105 0-3.0274 2.3713-4.9264 4.1109-3.2922 1.3026 1.2238 1.0715 3.9016-0.46032 5.3325-1.022 0.95471-1.9018 0.94562-2.8772-0.02972zm13.696-6.2047c-0.10867-0.28318 0.06291-0.57827 0.50446-0.86758 0.89366-0.58555 5.3586-0.8104 7.2209-0.36365 1.2467 0.29907 1.8429 0.66418 1.555 0.95214-0.06374 0.06375-1.4746 0.16303-3.1353 0.22062-1.6607 0.0576-3.6856 0.19087-4.4999 0.29617-1.2366 0.15991-1.5076 0.12076-1.6451-0.2377zm-18.967-1.5851c0-0.65997 1.0306-1.684 2.3092-2.2946 2.4213-1.1562 5.4796-0.66399 7.1773 1.1553 1 1.0716 0.45805 1.3258-1.1 0.51604-1.0765-0.5595-1.7535-0.71689-3.1182-0.72497-1.5163-9e-3 -1.9232 0.10159-3.1264 0.84958-1.4845 0.92281-2.1419 1.0759-2.1419 0.4987z" fill="#f8ab13"/>
  <path d="m-90.242 9.9778c-1.9226-0.31885-2.9002-0.93532-3.8055-2.3996-0.56056-0.90668-0.78303-1.6496-0.86773-2.8975l-0.11391-1.6783 0.40726 1.4552c0.66625 2.3806 1.8552 3.6028 3.8725 3.9807 1.876 0.35143 6.4492 0.60002 7.4801 0.40661 0.85739-0.16085 0.94942-0.25838 0.89669-0.95039-0.03753-0.49258 0.15245-0.99597 0.52592-1.3935 0.69674-0.74164 0.7333-1.1761 0.15294-1.8174-0.39927-0.44119-0.39927-0.52663 0-1.136 0.58143-0.88738 0.54394-1.6572-0.09742-2.0005-0.69023-0.3694-0.67542-1.1905 0.03039-1.6848 0.30776-0.21556 1.7663-0.77049 3.2411-1.2332 4.5215-1.4184 4.5269-1.4209 4.6182-2.0528 0.10685-0.73993 0.47036-0.74977 0.85917-0.023257 0.40222 0.75155-0.27824 1.6816-2.0083 2.7451-2.0558 1.2636-3.301 2.5871-3.301 3.5083 0 1.2405 0.52182 1.4877 2.7107 1.2843 4.064-0.37771 8.6701-2.5492 11.804-5.5648 4.4305-4.2633 6.6294-8.9609 7.3168-15.632 0.55769-5.4119-2.0186-11.66-6.5587-15.906-1.6437-1.5372-1.7315-1.6604-0.62649-0.87945 1.9673 1.3904 4.7708 4.4922 6.077 6.7236 5.4633 9.3329 3.9458 21.175-3.6921 28.813-4.4216 4.4216-9.8254 6.7008-16.414 6.9231-2.5391 0.085672-3.4338 0.21929-4.2333 0.63225-1.8484 0.95471-5.2676 1.2759-8.274 0.77731zm-6.3047-10.224c-5.6186-7.1663-6.7667-16.762-2.974-24.855 1.3052-2.7853 2.9172-5.061 4.9324-6.9633 2.5575-2.4142 3.5693-2.9261 1.2815-0.64828-4.7266 4.7058-6.4632 9.0881-6.1325 15.475 0.17553 3.3903 0.9005 6.2693 2.3463 9.3177 1.23 2.5934 2.2048 3.7544 2.6118 3.1108 0.13563-0.21447 0.24842-0.71033 0.25065-1.1019 0.0022-0.39159 0.12311-0.78557 0.26863-0.87551 0.4213-0.26038 0.30796 1.6098-0.26458 4.3656-0.28722 1.3824-0.52378 2.841-0.52569 3.2411-0.0019 0.40018-0.09277 0.72413-0.20191 0.71988-0.10914-0.00423-0.82581-0.80791-1.5926-1.7859zm6.1802-2.9891c-0.37674-0.44772-0.6914-0.89421-0.69924-0.99218-0.12946-1.6165-0.49865-4.2537-0.64536-4.6099-0.13554-0.32903-0.06657-0.46302 0.23834-0.46302 0.71218 0 1.4083 1.516 1.741 3.7916 0.17303 1.1833 0.42731 2.3622 0.56507 2.6196 0.43126 0.80581-0.4427 0.55376-1.1998-0.34603zm16.513-4.3737c-2.289-0.99992-5.3256-1.4909-8.4063-1.3591-1.7769 0.075988-3.0461 0.024342-3.1401-0.12776-0.72261-1.1692 3.8387-1.6275 7.8423-0.7879 3.511 0.73627 5.5562 1.5424 5.5562 2.1899 0 0.61716-0.57347 0.64346-1.8521 0.084918zm0.65477-10.852c-1.2417-1.3398-1.081-3.8418 0.3332-5.187 1.1194-1.0649 1.9499-1.1638 2.9194-0.34801 1.4787 1.2443 1.4506 3.7075-0.0605 5.3097-1.0984 1.1646-2.2465 1.2456-3.1921 0.22527zm-13.904-1.6672c-0.63427-0.63427-0.77339-0.99595-0.77339-2.0105 0-3.0274 2.3713-4.9264 4.1109-3.2922 1.3026 1.2238 1.0715 3.9016-0.46032 5.3325-1.022 0.95471-1.9018 0.94562-2.8772-0.02972zm13.696-6.2047c-0.10867-0.28318 0.06291-0.57827 0.50446-0.86758 0.89366-0.58555 5.3586-0.8104 7.2209-0.36365 1.2467 0.29907 1.8429 0.66418 1.555 0.95214-0.06374 0.06375-1.4746 0.16303-3.1353 0.22062-1.6607 0.0576-3.6856 0.19087-4.4999 0.29617-1.2366 0.15991-1.5076 0.12076-1.6451-0.2377zm-18.967-1.5851c0-0.65997 1.0306-1.684 2.3092-2.2946 2.4213-1.1562 5.4796-0.66399 7.1773 1.1553 1 1.0716 0.45805 1.3258-1.1 0.51604-1.0765-0.5595-1.7535-0.71689-3.1182-0.72497-1.5163-9e-3 -1.9232 0.10159-3.1264 0.84958-1.4845 0.92281-2.1419 1.0759-2.1419 0.4987z" fill="#ea940b"/>
  <path d="m-81.398 7.8767c-0.1246-0.5673-0.05169-0.94806 0.24414-1.2749 0.52095-0.57564 0.54007-1.3521 0.04982-2.0226-0.31959-0.43706-0.31959-0.61003 0-1.228 0.50107-0.96897 0.47704-1.1342-0.28452-1.9559-0.36107-0.38961-0.59112-0.81416-0.51121-0.94345 0.38607-0.62468 4.2564-2.0428 7.4513-2.7303 1.4202-0.30559 0.79146 0.51336-1.3534 1.7627-2.5883 1.5077-3.3444 2.3563-3.3364 3.7446 0.0085 1.4813 0.4074 3.1054 0.83445 3.3977 0.50615 0.3464 3.8122 0.017674 6.045-0.60105 3.5396-0.98087 6.3706-2.6344 9.2108-5.3798 3.5319-3.4141 5.7272-6.9579 7.0975-11.458 0.63444-2.0833 0.71032-2.7626 0.72938-6.529 0.02059-4.0677 0.03276-4.1576 0.37593-2.7781 0.59188 2.3793 0.50589 7.9024-0.16518 10.609-1.065 4.2957-3.168 8.0139-6.3092 11.155-4.4575 4.4575-9.8152 6.7004-16.548 6.9274l-3.353 0.11305zm-15.288-8.3139c-1.8158-2.302-3.5604-5.8508-4.3301-8.8079-0.54737-2.1031-0.66669-3.1689-0.65783-5.8764 6e-3 -1.819 0.16609-3.9492 0.35586-4.7338 0.3364-1.3909 0.34578-1.3314 0.37519 2.3812 0.0236 2.9812 0.15293 4.2673 0.59566 5.9245 0.65812 2.4633 2.7318 6.7753 4.2627 8.8635 1.0031 1.3683 1.0544 1.5263 0.85876 2.6458l-0.20802 1.1906zm6.0302-3.3097c-0.09077-0.14687-0.20772-1.285-0.2599-2.5291-0.08024-1.9134-0.0379-2.2148 0.27471-1.9553 0.37338 0.30988 0.49563 0.83931 0.7764 3.3624 0.1244 1.1179 0.07837 1.3891-0.2358 1.3891-0.2147 0-0.46464-0.12016-0.5554-0.26703zm16.802-3.8624c-2.2872-0.99913-5.3259-1.4909-8.4005-1.3594-2.4285 0.10385-2.9766 0.059438-2.9766-0.24121 0-0.59924 1.204-0.88457 3.7325-0.88457 3.8971 0 9.2416 1.3847 9.4462 2.4474 0.11138 0.57833-0.53331 0.59184-1.8017 0.037766zm0.9681-10.701c-1.4325-1.1268-1.4294-3.8899 0.0059-5.3044 1.1606-1.1437 1.9792-1.2221 3.0231-0.28934 0.78984 0.70572 0.87876 0.92973 0.87876 2.2137 0 1.6472-0.74765 3.1161-1.8391 3.6134-0.94276 0.42955-1.2733 0.39226-2.0686-0.23334zm-14.218-1.8175c-0.63427-0.63427-0.77339-0.99595-0.77339-2.0105 0-3.0521 2.4281-4.9624 4.1363-3.2542 1.369 1.369 0.9221 4.4843-0.79331 5.5303-1.1364 0.69292-1.6658 0.6382-2.5696-0.26564zm-13.717-1.7622c0.0127-0.30822 0.0754-0.37092 0.15985-0.15985 0.0764 0.191 0.067 0.4192-0.0209 0.50712-0.0879 0.08792-0.15045-0.06835-0.13896-0.34726zm27.413-4.4425c-0.10867-0.28318 0.06291-0.57827 0.50446-0.86758 0.89366-0.58555 5.3586-0.8104 7.2209-0.36365 1.2467 0.29907 1.8429 0.66418 1.555 0.95214-0.06374 0.06375-1.4746 0.16303-3.1353 0.22062-1.6607 0.0576-3.6856 0.19087-4.4999 0.29617-1.2366 0.15991-1.5076 0.12076-1.6451-0.2377zm-18.967-1.5851c0-0.65997 1.0306-1.684 2.3092-2.2946 2.4213-1.1562 5.4796-0.66399 7.1773 1.1553 1 1.0716 0.45805 1.3258-1.1 0.51604-1.0765-0.5595-1.7535-0.71689-3.1182-0.72497-1.5163-9e-3 -1.9232 0.10159-3.1264 0.84958-1.4845 0.92281-2.1419 1.0759-2.1419 0.4987z" fill="#ce760b"/>
  <path d="m-80.581 8.2751c-0.6058-0.6058-0.50961-1.314 0.24568-1.8088 0.66084-0.433 0.66146-0.43257 0.66146 0.46634 0 1.0356 0.33902 1.3997 1.4552 1.5629 0.52023 0.076067 0.3216 0.12972-0.57641 0.1557-0.93543 0.027064-1.5021-0.092276-1.7859-0.37613zm0.14999-3.5554-0.62486-0.84984 1.0858-1.0858 0.16878 0.67246c0.09283 0.36985 0.12971 0.99658 0.08197 1.3927l-0.0868 0.72027zm-0.35856-3.2798c-0.5751-0.72076-0.64989-0.95813-0.37403-1.1871 0.76547-0.63528 5.7231-2.0368 5.7231-1.6179 0 0.11872-0.64708 0.58105-1.438 1.0274-0.79088 0.44635-1.7731 1.2316-2.1828 1.745-0.40966 0.51342-0.80437 0.9335-0.87713 0.9335-0.07276 0-0.45577-0.40541-0.85113-0.90091zm7.2011-9.058c-2.5593-1.0939-7.7817-1.87-9.8606-1.4655-0.78478 0.15271-1.3198 0.15141-1.4156-0.00344-0.74105-1.199 5.9181-1.0831 9.8393 0.17138 2.4707 0.79042 2.9937 1.0767 2.6253 1.4368-0.16984 0.16604-0.58896 0.11692-1.1884-0.13928zm0.54276-10.989c-2.0592-2.2103 0.10708-6.6253 2.7527-5.6101 1.1248 0.43163 1.5432 2.874 0.77111 4.5012-0.80305 1.6923-2.4867 2.2221-3.5238 1.1089zm-13.986-1.62c-1.2132-1.2914-0.95202-3.8358 0.52092-5.0752 1.6598-1.3966 3.4999-0.30004 3.4641 2.0645-0.04268 2.823-2.4516 4.643-3.9851 3.0107zm13.625-6.1055c-0.10981-0.28616 0.07094-0.58358 0.54251-0.89269 1.4038-0.92015 8.8008-0.50445 8.8008 0.49459 0 0.12787-0.0893 0.23336-0.19844 0.23444-1.9628 0.01932-6.3698 0.25513-7.4997 0.40129-1.2367 0.15997-1.5076 0.12084-1.6451-0.23764zm-18.967-1.5851c0-0.65997 1.0306-1.684 2.3092-2.2946 2.4213-1.1562 5.4796-0.66399 7.1773 1.1553 1 1.0716 0.45805 1.3258-1.1 0.51604-1.0765-0.5595-1.7535-0.71689-3.1182-0.72497-1.5163-9e-3 -1.9232 0.10159-3.1264 0.84958-1.4845 0.92281-2.1419 1.0759-2.1419 0.4987z" fill="#9d6214"/>
  <path d="m-80.717 0.90413c-0.2508-0.30219-0.20753-0.43544 0.21479-0.66146 0.29087-0.15567 0.79556-0.28303 1.1215-0.28303h0.59268l-0.6214 0.66146c-0.71871 0.76504-0.87881 0.79969-1.3076 0.28303zm7.4818-22.222c0.07907-1.3112 0.21115-1.6666 0.81132-2.1828 0.39428-0.33914 0.98943-0.61662 1.3226-0.61662 1.0961 0 1.9216 1.4573 1.5851 2.7982l-0.18235 0.72655-0.42613-0.90248c-0.34323-0.7269-0.5781-0.90248-1.2072-0.90248-0.7867 0-0.89452 0.12525-1.7082 1.9844-0.24233 0.55371-0.2741 0.40633-0.19504-0.90472zm-13.913-0.04256c-0.27715-0.27827-0.24773-1.799 0.04994-2.5819 0.34661-0.91166 1.3271-1.7624 2.0313-1.7624 1.1869 0 2.125 2.091 1.4245 3.175-0.21046 0.32566-0.25721 0.29741-0.26053-0.15743-0.0046-0.62964-0.77305-1.4301-1.3729-1.4301-0.61925 0-1.3438 0.95904-1.5172 2.0081-0.08616 0.52142-0.24594 0.85837-0.35508 0.74878zm14.089-5.0999c0-0.15632 0.26789-0.43101 0.59531-0.61043 0.76185-0.41746 6.4879-0.46804 7.1713-0.06334 0.38436 0.22762-0.18853 0.32972-2.6458 0.47152-1.725 0.09955-3.5829 0.24972-4.1286 0.33373-0.62556 0.0963-0.99218 0.04772-0.99218-0.13148zm-18.747-1.7632c0.05304-0.27543 0.60428-0.8577 1.225-1.2939 1.9535-1.3729 5.2142-1.2726 7.0707 0.21768 1.1001 0.88302 0.68541 1.1102-0.70196 0.38447-0.84102-0.43991-1.6123-0.60486-2.8699-0.61377-1.7-0.01204-2.3983 0.21284-4.0638 1.3086-0.74122 0.48768-0.75456 0.48761-0.66007-0.0031z" fill="#74400a"/>
 </g>
</svg>
